<svg width="1332" height="688" viewBox="0 0 1332 688" fill="none" xmlns="http://www.w3.org/2000/svg">
<path d="M563.479 188L654.04 240.285L563.479 292.57V397.141L472.918 344.856V240.285L563.479 188Z" fill="white"/>
<path d="M667 249.693L757.561 301.979L667 354.264V458.834L576.439 406.549V301.979L667 249.693Z" fill="white"/>
<path d="M770.521 311.387L861.082 363.672V468.242L770.521 520.528L679.96 468.242V363.672L770.521 311.387Z" fill="white"/>
<path d="M131 188H204.34V207.944L237.071 188H272.226L297.683 225.47L359.507 188H393.449L448 268.379V521H374.66V281.675L357.688 255.688H337.686L326.776 268.379V353.593H253.436V281.675L235.859 255.688H215.25L204.34 268.379V521H131V188Z" fill="white"/>
<path d="M1104.5 188H1178V269.588L1120.9 327.606L1178 411.612V521H1104.5V424.907L1074.74 381.394H1021.28L957.5 447.269V521H884V426.116L938.669 369.307V368.098L884 282.884V188H957.5V269.588L986.657 313.102H1039.5L1104.5 246.622V188Z" fill="white"/>
</svg>
