<svg width="393" height="72" viewBox="0 0 393 72" fill="none" xmlns="http://www.w3.org/2000/svg">
<mask id="mask0_645_15" style="mask-type:alpha" maskUnits="userSpaceOnUse" x="-115" y="5" width="609" height="63">
<path d="M109.099 43V30.04H112.459C113.334 30.04 114.081 30.1413 114.699 30.344C115.329 30.536 115.809 30.8827 116.139 31.384C116.481 31.8853 116.651 32.5787 116.651 33.464C116.651 33.9973 116.603 34.472 116.507 34.888C116.422 35.2933 116.262 35.6507 116.027 35.96C115.803 36.2587 115.483 36.4987 115.067 36.68L116.859 43H114.155L112.667 37.128H111.739V43H109.099ZM111.739 35.56H112.507C112.934 35.56 113.27 35.4907 113.515 35.352C113.761 35.2133 113.931 35.0053 114.027 34.728C114.134 34.44 114.187 34.088 114.187 33.672C114.187 33.0747 114.075 32.6213 113.851 32.312C113.638 31.992 113.233 31.832 112.635 31.832H111.739V35.56ZM120.028 43V30.04H125.676V31.864H122.668V35.304H124.988V37.144H122.668V41.208H125.708V43H120.028ZM132.243 43.176C131.283 43.176 130.521 42.9947 129.955 42.632C129.401 42.2693 129.011 41.768 128.787 41.128C128.563 40.4773 128.451 39.7253 128.451 38.872V34.216C128.451 33.32 128.563 32.552 128.787 31.912C129.011 31.2613 129.401 30.76 129.955 30.408C130.521 30.056 131.283 29.88 132.243 29.88C133.171 29.88 133.897 30.0347 134.419 30.344C134.953 30.6533 135.326 31.0907 135.539 31.656C135.763 32.2213 135.875 32.8773 135.875 33.624V34.712H133.315V33.496C133.315 33.1973 133.299 32.92 133.267 32.664C133.235 32.3973 133.145 32.184 132.995 32.024C132.857 31.8533 132.611 31.768 132.259 31.768C131.907 31.768 131.651 31.8533 131.491 32.024C131.331 32.1947 131.23 32.4187 131.187 32.696C131.145 32.9627 131.123 33.2613 131.123 33.592V39.48C131.123 39.8427 131.15 40.1627 131.203 40.44C131.267 40.7067 131.379 40.9147 131.539 41.064C131.71 41.2027 131.95 41.272 132.259 41.272C132.601 41.272 132.841 41.192 132.979 41.032C133.129 40.8613 133.219 40.6373 133.251 40.36C133.294 40.0827 133.315 39.7893 133.315 39.48V38.216H135.875V39.288C135.875 40.0453 135.769 40.7173 135.555 41.304C135.342 41.88 134.974 42.3387 134.451 42.68C133.929 43.0107 133.193 43.176 132.243 43.176ZM139.087 43V30.04H144.735V31.864H141.727V35.304H144.047V37.144H141.727V41.208H144.767V43H139.087ZM147.703 43V30.04H149.543L152.423 36.792V30.04H154.599V43H152.839L149.959 35.832V43H147.703ZM159.378 43V32.008H157.378V30.04H164.002V32.008H162.034V43H159.378ZM173.594 43V32.008H171.594V30.04H178.218V32.008H176.25V43H173.594ZM180.993 43V30.04H184.353C185.228 30.04 185.975 30.1413 186.593 30.344C187.223 30.536 187.703 30.8827 188.033 31.384C188.375 31.8853 188.545 32.5787 188.545 33.464C188.545 33.9973 188.497 34.472 188.401 34.888C188.316 35.2933 188.156 35.6507 187.921 35.96C187.697 36.2587 187.377 36.4987 186.961 36.68L188.753 43H186.049L184.561 37.128H183.633V43H180.993ZM183.633 35.56H184.401C184.828 35.56 185.164 35.4907 185.409 35.352C185.655 35.2133 185.825 35.0053 185.921 34.728C186.028 34.44 186.081 34.088 186.081 33.672C186.081 33.0747 185.969 32.6213 185.745 32.312C185.532 31.992 185.127 31.832 184.529 31.832H183.633V35.56ZM191.281 43L193.793 30.04H196.721L199.217 43H196.769L196.305 40.152H194.257L193.761 43H191.281ZM194.497 38.536H196.049L195.265 33.304L194.497 38.536ZM202.131 43V30.04H203.971L206.851 36.792V30.04H209.027V43H207.267L204.387 35.832V43H202.131ZM215.95 43.176C215.15 43.176 214.483 43.032 213.95 42.744C213.417 42.4453 213.011 42.0027 212.734 41.416C212.467 40.8187 212.313 40.0613 212.27 39.144L214.542 38.76C214.563 39.2933 214.617 39.7413 214.702 40.104C214.798 40.456 214.937 40.7227 215.118 40.904C215.31 41.0747 215.545 41.16 215.822 41.16C216.163 41.16 216.393 41.0533 216.51 40.84C216.638 40.6267 216.702 40.3813 216.702 40.104C216.702 39.56 216.569 39.1067 216.302 38.744C216.046 38.3707 215.705 37.9973 215.278 37.624L213.934 36.456C213.454 36.0507 213.059 35.592 212.75 35.08C212.451 34.568 212.302 33.9387 212.302 33.192C212.302 32.1253 212.611 31.3093 213.23 30.744C213.859 30.168 214.718 29.88 215.806 29.88C216.457 29.88 216.99 29.9867 217.406 30.2C217.822 30.4133 218.142 30.7013 218.366 31.064C218.601 31.416 218.761 31.8053 218.846 32.232C218.942 32.648 219.001 33.064 219.022 33.48L216.766 33.816C216.745 33.4213 216.707 33.0747 216.654 32.776C216.611 32.4773 216.515 32.2427 216.366 32.072C216.227 31.9013 216.014 31.816 215.726 31.816C215.417 31.816 215.187 31.9333 215.038 32.168C214.889 32.392 214.814 32.6427 214.814 32.92C214.814 33.3787 214.915 33.7573 215.118 34.056C215.331 34.344 215.619 34.648 215.982 34.968L217.294 36.12C217.838 36.5893 218.302 37.128 218.686 37.736C219.081 38.3333 219.278 39.0747 219.278 39.96C219.278 40.568 219.139 41.1173 218.862 41.608C218.585 42.0987 218.195 42.4827 217.694 42.76C217.203 43.0373 216.622 43.176 215.95 43.176ZM221.519 43L224.031 30.04H226.959L229.455 43H227.007L226.543 40.152H224.495L223.999 43H221.519ZM224.735 38.536H226.287L225.503 33.304L224.735 38.536ZM235.796 43.176C234.836 43.176 234.074 42.9947 233.508 42.632C232.954 42.2693 232.564 41.768 232.34 41.128C232.116 40.4773 232.004 39.7253 232.004 38.872V34.216C232.004 33.32 232.116 32.552 232.34 31.912C232.564 31.2613 232.954 30.76 233.508 30.408C234.074 30.056 234.836 29.88 235.796 29.88C236.724 29.88 237.45 30.0347 237.972 30.344C238.506 30.6533 238.879 31.0907 239.092 31.656C239.316 32.2213 239.428 32.8773 239.428 33.624V34.712H236.868V33.496C236.868 33.1973 236.852 32.92 236.82 32.664C236.788 32.3973 236.698 32.184 236.548 32.024C236.41 31.8533 236.164 31.768 235.812 31.768C235.46 31.768 235.204 31.8533 235.044 32.024C234.884 32.1947 234.783 32.4187 234.74 32.696C234.698 32.9627 234.676 33.2613 234.676 33.592V39.48C234.676 39.8427 234.703 40.1627 234.756 40.44C234.82 40.7067 234.932 40.9147 235.092 41.064C235.263 41.2027 235.503 41.272 235.812 41.272C236.154 41.272 236.394 41.192 236.532 41.032C236.682 40.8613 236.772 40.6373 236.804 40.36C236.847 40.0827 236.868 39.7893 236.868 39.48V38.216H239.428V39.288C239.428 40.0453 239.322 40.7173 239.108 41.304C238.895 41.88 238.527 42.3387 238.004 42.68C237.482 43.0107 236.746 43.176 235.796 43.176ZM243.856 43V32.008H241.856V30.04H248.48V32.008H246.512V43H243.856ZM251.288 43V30.04H253.912V43H251.288ZM261.112 43.176C260.163 43.176 259.411 43.0053 258.856 42.664C258.302 42.3227 257.902 41.8373 257.656 41.208C257.422 40.568 257.304 39.8053 257.304 38.92V34.088C257.304 33.2027 257.422 32.4453 257.656 31.816C257.902 31.1867 258.302 30.7067 258.856 30.376C259.411 30.0453 260.163 29.88 261.112 29.88C262.072 29.88 262.83 30.0507 263.384 30.392C263.95 30.7227 264.35 31.2027 264.584 31.832C264.83 32.4507 264.952 33.2027 264.952 34.088V38.92C264.952 39.8053 264.83 40.568 264.584 41.208C264.35 41.8373 263.95 42.3227 263.384 42.664C262.83 43.0053 262.072 43.176 261.112 43.176ZM261.112 41.272C261.454 41.272 261.704 41.1973 261.864 41.048C262.024 40.888 262.131 40.68 262.184 40.424C262.238 40.1573 262.264 39.8747 262.264 39.576V33.448C262.264 33.1493 262.238 32.872 262.184 32.616C262.131 32.36 262.024 32.1573 261.864 32.008C261.704 31.848 261.454 31.768 261.112 31.768C260.792 31.768 260.552 31.848 260.392 32.008C260.232 32.1573 260.126 32.36 260.072 32.616C260.019 32.872 259.992 33.1493 259.992 33.448V39.576C259.992 39.8747 260.014 40.1573 260.056 40.424C260.11 40.68 260.216 40.888 260.376 41.048C260.536 41.1973 260.782 41.272 261.112 41.272ZM268.315 43V30.04H270.155L273.035 36.792V30.04H275.211V43H273.451L270.571 35.832V43H268.315ZM282.134 43.176C281.334 43.176 280.668 43.032 280.134 42.744C279.601 42.4453 279.196 42.0027 278.918 41.416C278.652 40.8187 278.497 40.0613 278.454 39.144L280.726 38.76C280.748 39.2933 280.801 39.7413 280.886 40.104C280.982 40.456 281.121 40.7227 281.302 40.904C281.494 41.0747 281.729 41.16 282.006 41.16C282.348 41.16 282.577 41.0533 282.694 40.84C282.822 40.6267 282.886 40.3813 282.886 40.104C282.886 39.56 282.753 39.1067 282.486 38.744C282.23 38.3707 281.889 37.9973 281.462 37.624L280.118 36.456C279.638 36.0507 279.244 35.592 278.934 35.08C278.636 34.568 278.486 33.9387 278.486 33.192C278.486 32.1253 278.796 31.3093 279.414 30.744C280.044 30.168 280.902 29.88 281.99 29.88C282.641 29.88 283.174 29.9867 283.59 30.2C284.006 30.4133 284.326 30.7013 284.55 31.064C284.785 31.416 284.945 31.8053 285.03 32.232C285.126 32.648 285.185 33.064 285.206 33.48L282.95 33.816C282.929 33.4213 282.892 33.0747 282.838 32.776C282.796 32.4773 282.7 32.2427 282.55 32.072C282.412 31.9013 282.198 31.816 281.91 31.816C281.601 31.816 281.372 31.9333 281.222 32.168C281.073 32.392 280.998 32.6427 280.998 32.92C280.998 33.3787 281.1 33.7573 281.302 34.056C281.516 34.344 281.804 34.648 282.166 34.968L283.478 36.12C284.022 36.5893 284.486 37.128 284.87 37.736C285.265 38.3333 285.462 39.0747 285.462 39.96C285.462 40.568 285.324 41.1173 285.046 41.608C284.769 42.0987 284.38 42.4827 283.878 42.76C283.388 43.0373 282.806 43.176 282.134 43.176Z" fill="black"/>
<path d="M70.976 19V6.04H74.08C74.9547 6.04 75.6907 6.14667 76.288 6.36C76.896 6.56267 77.3547 6.91467 77.664 7.416C77.984 7.91733 78.144 8.6 78.144 9.464C78.144 9.98667 78.096 10.456 78 10.872C77.904 11.288 77.7387 11.6453 77.504 11.944C77.28 12.232 76.9653 12.456 76.56 12.616L78.368 19H76L74.432 13.064H73.344V19H70.976ZM73.344 11.576H74.08C74.5387 11.576 74.9013 11.512 75.168 11.384C75.4453 11.2453 75.6427 11.032 75.76 10.744C75.8773 10.4453 75.936 10.0667 75.936 9.608C75.936 8.95733 75.8133 8.472 75.568 8.152C75.3333 7.82133 74.88 7.656 74.208 7.656H73.344V11.576ZM81.5448 19V6.04H86.9848V7.704H83.9128V11.432H86.3288V13.08H83.9128V17.368H87.0168V19H81.5448ZM93.4765 19.176C92.5272 19.176 91.7805 18.9893 91.2365 18.616C90.7032 18.2427 90.3298 17.736 90.1165 17.096C89.9032 16.4453 89.7965 15.6987 89.7965 14.856V10.232C89.7965 9.34667 89.9032 8.57867 90.1165 7.928C90.3298 7.27733 90.7032 6.776 91.2365 6.424C91.7805 6.072 92.5272 5.896 93.4765 5.896C94.3725 5.896 95.0712 6.05067 95.5725 6.36C96.0845 6.65867 96.4472 7.09067 96.6605 7.656C96.8738 8.22133 96.9805 8.87733 96.9805 9.624V10.712H94.7085V9.592C94.7085 9.22933 94.6872 8.89867 94.6445 8.6C94.6125 8.30133 94.5112 8.06667 94.3405 7.896C94.1805 7.71467 93.8978 7.624 93.4925 7.624C93.0872 7.624 92.7885 7.72 92.5965 7.912C92.4152 8.09333 92.2978 8.344 92.2445 8.664C92.1912 8.97333 92.1645 9.32533 92.1645 9.72V15.352C92.1645 15.8213 92.2018 16.2107 92.2765 16.52C92.3512 16.8187 92.4845 17.048 92.6765 17.208C92.8792 17.3573 93.1512 17.432 93.4925 17.432C93.8872 17.432 94.1645 17.3413 94.3245 17.16C94.4952 16.968 94.6018 16.7173 94.6445 16.408C94.6872 16.0987 94.7085 15.752 94.7085 15.368V14.2H96.9805V15.24C96.9805 16.008 96.8792 16.6907 96.6765 17.288C96.4738 17.8747 96.1165 18.3387 95.6045 18.68C95.1032 19.0107 94.3938 19.176 93.4765 19.176ZM100.229 19V6.04H105.669V7.704H102.597V11.432H105.013V13.08H102.597V17.368H105.701V19H100.229ZM108.673 19V6.04H110.321L113.473 13.432V6.04H115.425V19H113.857L110.689 11.256V19H108.673ZM120.288 19V7.784H118.224V6.04H124.688V7.784H122.656V19H120.288ZM134.253 19V7.784H132.189V6.04H138.653V7.784H136.621V19H134.253ZM141.432 19V6.04H144.536C145.411 6.04 146.147 6.14667 146.744 6.36C147.352 6.56267 147.811 6.91467 148.12 7.416C148.44 7.91733 148.6 8.6 148.6 9.464C148.6 9.98667 148.552 10.456 148.456 10.872C148.36 11.288 148.195 11.6453 147.96 11.944C147.736 12.232 147.422 12.456 147.016 12.616L148.824 19H146.456L144.888 13.064H143.8V19H141.432ZM143.8 11.576H144.536C144.995 11.576 145.358 11.512 145.624 11.384C145.902 11.2453 146.099 11.032 146.216 10.744C146.334 10.4453 146.392 10.0667 146.392 9.608C146.392 8.95733 146.27 8.472 146.024 8.152C145.79 7.82133 145.336 7.656 144.664 7.656H143.8V11.576ZM151.345 19L153.937 6.04H156.465L159.057 19H156.865L156.353 16.008H154.097L153.569 19H151.345ZM154.337 14.504H156.097L155.217 9.064L154.337 14.504ZM161.96 19V6.04H163.608L166.76 13.432V6.04H168.712V19H167.144L163.976 11.256V19H161.96ZM175.543 19.176C174.764 19.176 174.114 19.0267 173.591 18.728C173.068 18.4187 172.674 17.9707 172.407 17.384C172.14 16.7973 171.991 16.0773 171.959 15.224L173.991 14.824C174.012 15.3253 174.071 15.768 174.167 16.152C174.274 16.536 174.428 16.8347 174.631 17.048C174.844 17.2507 175.122 17.352 175.463 17.352C175.847 17.352 176.119 17.24 176.279 17.016C176.439 16.7813 176.519 16.488 176.519 16.136C176.519 15.5707 176.391 15.1067 176.135 14.744C175.879 14.3813 175.538 14.0187 175.111 13.656L173.479 12.216C173.02 11.8213 172.652 11.384 172.375 10.904C172.108 10.4133 171.975 9.81067 171.975 9.096C171.975 8.072 172.274 7.28267 172.871 6.728C173.468 6.17333 174.284 5.896 175.319 5.896C175.927 5.896 176.434 5.992 176.839 6.184C177.244 6.36533 177.564 6.62133 177.799 6.952C178.044 7.28267 178.226 7.66133 178.343 8.088C178.46 8.504 178.535 8.94667 178.567 9.416L176.551 9.768C176.53 9.36267 176.482 9 176.407 8.68C176.343 8.36 176.22 8.10933 176.039 7.928C175.868 7.74667 175.612 7.656 175.271 7.656C174.919 7.656 174.647 7.77333 174.455 8.008C174.274 8.232 174.183 8.51467 174.183 8.856C174.183 9.29333 174.274 9.656 174.455 9.944C174.636 10.2213 174.898 10.5093 175.239 10.808L176.855 12.232C177.388 12.68 177.842 13.208 178.215 13.816C178.599 14.4133 178.791 15.1387 178.791 15.992C178.791 16.6107 178.652 17.16 178.375 17.64C178.108 18.12 177.73 18.4987 177.239 18.776C176.759 19.0427 176.194 19.176 175.543 19.176ZM181.036 19L183.628 6.04H186.156L188.748 19H186.556L186.044 16.008H183.788L183.26 19H181.036ZM184.028 14.504H185.788L184.908 9.064L184.028 14.504ZM194.998 19.176C194.049 19.176 193.302 18.9893 192.758 18.616C192.225 18.2427 191.852 17.736 191.638 17.096C191.425 16.4453 191.318 15.6987 191.318 14.856V10.232C191.318 9.34667 191.425 8.57867 191.638 7.928C191.852 7.27733 192.225 6.776 192.758 6.424C193.302 6.072 194.049 5.896 194.998 5.896C195.894 5.896 196.593 6.05067 197.094 6.36C197.606 6.65867 197.969 7.09067 198.182 7.656C198.396 8.22133 198.502 8.87733 198.502 9.624V10.712H196.23V9.592C196.23 9.22933 196.209 8.89867 196.166 8.6C196.134 8.30133 196.033 8.06667 195.862 7.896C195.702 7.71467 195.42 7.624 195.014 7.624C194.609 7.624 194.31 7.72 194.118 7.912C193.937 8.09333 193.82 8.344 193.766 8.664C193.713 8.97333 193.686 9.32533 193.686 9.72V15.352C193.686 15.8213 193.724 16.2107 193.798 16.52C193.873 16.8187 194.006 17.048 194.198 17.208C194.401 17.3573 194.673 17.432 195.014 17.432C195.409 17.432 195.686 17.3413 195.846 17.16C196.017 16.968 196.124 16.7173 196.166 16.408C196.209 16.0987 196.23 15.752 196.23 15.368V14.2H198.502V15.24C198.502 16.008 198.401 16.6907 198.198 17.288C197.996 17.8747 197.638 18.3387 197.126 18.68C196.625 19.0107 195.916 19.176 194.998 19.176ZM203.047 19V7.784H200.983V6.04H207.447V7.784H205.415V19H203.047ZM210.29 19V6.04H212.626V19H210.29ZM219.752 19.176C218.835 19.176 218.104 19.0053 217.56 18.664C217.016 18.3227 216.627 17.832 216.392 17.192C216.158 16.552 216.04 15.7947 216.04 14.92V10.072C216.04 9.19733 216.158 8.45067 216.392 7.832C216.627 7.20267 217.016 6.72267 217.56 6.392C218.104 6.06133 218.835 5.896 219.752 5.896C220.691 5.896 221.427 6.06133 221.96 6.392C222.504 6.72267 222.894 7.20267 223.128 7.832C223.374 8.45067 223.496 9.19733 223.496 10.072V14.936C223.496 15.8 223.374 16.552 223.128 17.192C222.894 17.8213 222.504 18.312 221.96 18.664C221.427 19.0053 220.691 19.176 219.752 19.176ZM219.752 17.432C220.147 17.432 220.435 17.3467 220.616 17.176C220.808 17.0053 220.936 16.7707 221 16.472C221.064 16.1733 221.096 15.848 221.096 15.496V9.528C221.096 9.16533 221.064 8.84 221 8.552C220.936 8.264 220.808 8.04 220.616 7.88C220.435 7.70933 220.147 7.624 219.752 7.624C219.379 7.624 219.096 7.70933 218.904 7.88C218.712 8.04 218.584 8.264 218.52 8.552C218.456 8.84 218.424 9.16533 218.424 9.528V15.496C218.424 15.848 218.451 16.1733 218.504 16.472C218.568 16.7707 218.696 17.0053 218.888 17.176C219.08 17.3467 219.368 17.432 219.752 17.432ZM226.848 19V6.04H228.496L231.648 13.432V6.04H233.6V19H232.032L228.864 11.256V19H226.848ZM240.431 19.176C239.652 19.176 239.001 19.0267 238.479 18.728C237.956 18.4187 237.561 17.9707 237.295 17.384C237.028 16.7973 236.879 16.0773 236.847 15.224L238.879 14.824C238.9 15.3253 238.959 15.768 239.055 16.152C239.161 16.536 239.316 16.8347 239.519 17.048C239.732 17.2507 240.009 17.352 240.351 17.352C240.735 17.352 241.007 17.24 241.167 17.016C241.327 16.7813 241.407 16.488 241.407 16.136C241.407 15.5707 241.279 15.1067 241.023 14.744C240.767 14.3813 240.425 14.0187 239.999 13.656L238.367 12.216C237.908 11.8213 237.54 11.384 237.263 10.904C236.996 10.4133 236.863 9.81067 236.863 9.096C236.863 8.072 237.161 7.28267 237.759 6.728C238.356 6.17333 239.172 5.896 240.207 5.896C240.815 5.896 241.321 5.992 241.727 6.184C242.132 6.36533 242.452 6.62133 242.687 6.952C242.932 7.28267 243.113 7.66133 243.231 8.088C243.348 8.504 243.423 8.94667 243.455 9.416L241.439 9.768C241.417 9.36267 241.369 9 241.295 8.68C241.231 8.36 241.108 8.10933 240.927 7.928C240.756 7.74667 240.5 7.656 240.159 7.656C239.807 7.656 239.535 7.77333 239.343 8.008C239.161 8.232 239.071 8.51467 239.071 8.856C239.071 9.29333 239.161 9.656 239.343 9.944C239.524 10.2213 239.785 10.5093 240.127 10.808L241.743 12.232C242.276 12.68 242.729 13.208 243.103 13.816C243.487 14.4133 243.679 15.1387 243.679 15.992C243.679 16.6107 243.54 17.16 243.263 17.64C242.996 18.12 242.617 18.4987 242.127 18.776C241.647 19.0427 241.081 19.176 240.431 19.176Z" fill="black" fill-opacity="0.3"/>
<path d="M135.976 67V54.04H139.08C139.955 54.04 140.691 54.1467 141.288 54.36C141.896 54.5627 142.355 54.9147 142.664 55.416C142.984 55.9173 143.144 56.6 143.144 57.464C143.144 57.9867 143.096 58.456 143 58.872C142.904 59.288 142.739 59.6453 142.504 59.944C142.28 60.232 141.965 60.456 141.56 60.616L143.368 67H141L139.432 61.064H138.344V67H135.976ZM138.344 59.576H139.08C139.539 59.576 139.901 59.512 140.168 59.384C140.445 59.2453 140.643 59.032 140.76 58.744C140.877 58.4453 140.936 58.0667 140.936 57.608C140.936 56.9573 140.813 56.472 140.568 56.152C140.333 55.8213 139.88 55.656 139.208 55.656H138.344V59.576ZM146.545 67V54.04H151.985V55.704H148.913V59.432H151.329V61.08H148.913V65.368H152.017V67H146.545ZM158.477 67.176C157.527 67.176 156.781 66.9893 156.237 66.616C155.703 66.2427 155.33 65.736 155.117 65.096C154.903 64.4453 154.797 63.6987 154.797 62.856V58.232C154.797 57.3467 154.903 56.5787 155.117 55.928C155.33 55.2773 155.703 54.776 156.237 54.424C156.781 54.072 157.527 53.896 158.477 53.896C159.373 53.896 160.071 54.0507 160.573 54.36C161.085 54.6587 161.447 55.0907 161.661 55.656C161.874 56.2213 161.981 56.8773 161.981 57.624V58.712H159.709V57.592C159.709 57.2293 159.687 56.8987 159.645 56.6C159.613 56.3013 159.511 56.0667 159.341 55.896C159.181 55.7147 158.898 55.624 158.493 55.624C158.087 55.624 157.789 55.72 157.597 55.912C157.415 56.0933 157.298 56.344 157.245 56.664C157.191 56.9733 157.165 57.3253 157.165 57.72V63.352C157.165 63.8213 157.202 64.2107 157.277 64.52C157.351 64.8187 157.485 65.048 157.677 65.208C157.879 65.3573 158.151 65.432 158.493 65.432C158.887 65.432 159.165 65.3413 159.325 65.16C159.495 64.968 159.602 64.7173 159.645 64.408C159.687 64.0987 159.709 63.752 159.709 63.368V62.2H161.981V63.24C161.981 64.008 161.879 64.6907 161.677 65.288C161.474 65.8747 161.117 66.3387 160.605 66.68C160.103 67.0107 159.394 67.176 158.477 67.176ZM165.229 67V54.04H170.669V55.704H167.597V59.432H170.013V61.08H167.597V65.368H170.701V67H165.229ZM173.673 67V54.04H175.321L178.473 61.432V54.04H180.425V67H178.857L175.689 59.256V67H173.673ZM185.288 67V55.784H183.224V54.04H189.688V55.784H187.656V67H185.288ZM199.253 67V55.784H197.189V54.04H203.653V55.784H201.621V67H199.253ZM206.432 67V54.04H209.536C210.411 54.04 211.147 54.1467 211.744 54.36C212.352 54.5627 212.811 54.9147 213.12 55.416C213.44 55.9173 213.6 56.6 213.6 57.464C213.6 57.9867 213.552 58.456 213.456 58.872C213.36 59.288 213.195 59.6453 212.96 59.944C212.736 60.232 212.422 60.456 212.016 60.616L213.824 67H211.456L209.888 61.064H208.8V67H206.432ZM208.8 59.576H209.536C209.995 59.576 210.358 59.512 210.624 59.384C210.902 59.2453 211.099 59.032 211.216 58.744C211.334 58.4453 211.392 58.0667 211.392 57.608C211.392 56.9573 211.27 56.472 211.024 56.152C210.79 55.8213 210.336 55.656 209.664 55.656H208.8V59.576ZM216.345 67L218.937 54.04H221.465L224.057 67H221.865L221.353 64.008H219.097L218.569 67H216.345ZM219.337 62.504H221.097L220.217 57.064L219.337 62.504ZM226.96 67V54.04H228.608L231.76 61.432V54.04H233.712V67H232.144L228.976 59.256V67H226.96ZM240.543 67.176C239.764 67.176 239.114 67.0267 238.591 66.728C238.068 66.4187 237.674 65.9707 237.407 65.384C237.14 64.7973 236.991 64.0773 236.959 63.224L238.991 62.824C239.012 63.3253 239.071 63.768 239.167 64.152C239.274 64.536 239.428 64.8347 239.631 65.048C239.844 65.2507 240.122 65.352 240.463 65.352C240.847 65.352 241.119 65.24 241.279 65.016C241.439 64.7813 241.519 64.488 241.519 64.136C241.519 63.5707 241.391 63.1067 241.135 62.744C240.879 62.3813 240.538 62.0187 240.111 61.656L238.479 60.216C238.02 59.8213 237.652 59.384 237.375 58.904C237.108 58.4133 236.975 57.8107 236.975 57.096C236.975 56.072 237.274 55.2827 237.871 54.728C238.468 54.1733 239.284 53.896 240.319 53.896C240.927 53.896 241.434 53.992 241.839 54.184C242.244 54.3653 242.564 54.6213 242.799 54.952C243.044 55.2827 243.226 55.6613 243.343 56.088C243.46 56.504 243.535 56.9467 243.567 57.416L241.551 57.768C241.53 57.3627 241.482 57 241.407 56.68C241.343 56.36 241.22 56.1093 241.039 55.928C240.868 55.7467 240.612 55.656 240.271 55.656C239.919 55.656 239.647 55.7733 239.455 56.008C239.274 56.232 239.183 56.5147 239.183 56.856C239.183 57.2933 239.274 57.656 239.455 57.944C239.636 58.2213 239.898 58.5093 240.239 58.808L241.855 60.232C242.388 60.68 242.842 61.208 243.215 61.816C243.599 62.4133 243.791 63.1387 243.791 63.992C243.791 64.6107 243.652 65.16 243.375 65.64C243.108 66.12 242.73 66.4987 242.239 66.776C241.759 67.0427 241.194 67.176 240.543 67.176ZM246.036 67L248.628 54.04H251.156L253.748 67H251.556L251.044 64.008H248.788L248.26 67H246.036ZM249.028 62.504H250.788L249.908 57.064L249.028 62.504ZM259.998 67.176C259.049 67.176 258.302 66.9893 257.758 66.616C257.225 66.2427 256.852 65.736 256.638 65.096C256.425 64.4453 256.318 63.6987 256.318 62.856V58.232C256.318 57.3467 256.425 56.5787 256.638 55.928C256.852 55.2773 257.225 54.776 257.758 54.424C258.302 54.072 259.049 53.896 259.998 53.896C260.894 53.896 261.593 54.0507 262.094 54.36C262.606 54.6587 262.969 55.0907 263.182 55.656C263.396 56.2213 263.502 56.8773 263.502 57.624V58.712H261.23V57.592C261.23 57.2293 261.209 56.8987 261.166 56.6C261.134 56.3013 261.033 56.0667 260.862 55.896C260.702 55.7147 260.42 55.624 260.014 55.624C259.609 55.624 259.31 55.72 259.118 55.912C258.937 56.0933 258.82 56.344 258.766 56.664C258.713 56.9733 258.686 57.3253 258.686 57.72V63.352C258.686 63.8213 258.724 64.2107 258.798 64.52C258.873 64.8187 259.006 65.048 259.198 65.208C259.401 65.3573 259.673 65.432 260.014 65.432C260.409 65.432 260.686 65.3413 260.846 65.16C261.017 64.968 261.124 64.7173 261.166 64.408C261.209 64.0987 261.23 63.752 261.23 63.368V62.2H263.502V63.24C263.502 64.008 263.401 64.6907 263.198 65.288C262.996 65.8747 262.638 66.3387 262.126 66.68C261.625 67.0107 260.916 67.176 259.998 67.176ZM268.047 67V55.784H265.983V54.04H272.447V55.784H270.415V67H268.047ZM275.29 67V54.04H277.626V67H275.29ZM284.752 67.176C283.835 67.176 283.104 67.0053 282.56 66.664C282.016 66.3227 281.627 65.832 281.392 65.192C281.158 64.552 281.04 63.7947 281.04 62.92V58.072C281.04 57.1973 281.158 56.4507 281.392 55.832C281.627 55.2027 282.016 54.7227 282.56 54.392C283.104 54.0613 283.835 53.896 284.752 53.896C285.691 53.896 286.427 54.0613 286.96 54.392C287.504 54.7227 287.894 55.2027 288.128 55.832C288.374 56.4507 288.496 57.1973 288.496 58.072V62.936C288.496 63.8 288.374 64.552 288.128 65.192C287.894 65.8213 287.504 66.312 286.96 66.664C286.427 67.0053 285.691 67.176 284.752 67.176ZM284.752 65.432C285.147 65.432 285.435 65.3467 285.616 65.176C285.808 65.0053 285.936 64.7707 286 64.472C286.064 64.1733 286.096 63.848 286.096 63.496V57.528C286.096 57.1653 286.064 56.84 286 56.552C285.936 56.264 285.808 56.04 285.616 55.88C285.435 55.7093 285.147 55.624 284.752 55.624C284.379 55.624 284.096 55.7093 283.904 55.88C283.712 56.04 283.584 56.264 283.52 56.552C283.456 56.84 283.424 57.1653 283.424 57.528V63.496C283.424 63.848 283.451 64.1733 283.504 64.472C283.568 64.7707 283.696 65.0053 283.888 65.176C284.08 65.3467 284.368 65.432 284.752 65.432ZM291.848 67V54.04H293.496L296.648 61.432V54.04H298.6V67H297.032L293.864 59.256V67H291.848ZM305.431 67.176C304.652 67.176 304.001 67.0267 303.479 66.728C302.956 66.4187 302.561 65.9707 302.295 65.384C302.028 64.7973 301.879 64.0773 301.847 63.224L303.879 62.824C303.9 63.3253 303.959 63.768 304.055 64.152C304.161 64.536 304.316 64.8347 304.519 65.048C304.732 65.2507 305.009 65.352 305.351 65.352C305.735 65.352 306.007 65.24 306.167 65.016C306.327 64.7813 306.407 64.488 306.407 64.136C306.407 63.5707 306.279 63.1067 306.023 62.744C305.767 62.3813 305.425 62.0187 304.999 61.656L303.367 60.216C302.908 59.8213 302.54 59.384 302.263 58.904C301.996 58.4133 301.863 57.8107 301.863 57.096C301.863 56.072 302.161 55.2827 302.759 54.728C303.356 54.1733 304.172 53.896 305.207 53.896C305.815 53.896 306.321 53.992 306.727 54.184C307.132 54.3653 307.452 54.6213 307.687 54.952C307.932 55.2827 308.113 55.6613 308.231 56.088C308.348 56.504 308.423 56.9467 308.455 57.416L306.439 57.768C306.417 57.3627 306.369 57 306.295 56.68C306.231 56.36 306.108 56.1093 305.927 55.928C305.756 55.7467 305.5 55.656 305.159 55.656C304.807 55.656 304.535 55.7733 304.343 56.008C304.161 56.232 304.071 56.5147 304.071 56.856C304.071 57.2933 304.161 57.656 304.343 57.944C304.524 58.2213 304.785 58.5093 305.127 58.808L306.743 60.232C307.276 60.68 307.729 61.208 308.103 61.816C308.487 62.4133 308.679 63.1387 308.679 63.992C308.679 64.6107 308.54 65.16 308.263 65.64C307.996 66.12 307.617 66.4987 307.127 66.776C306.647 67.0427 306.081 67.176 305.431 67.176Z" fill="black" fill-opacity="0.3"/>
<path d="M-75.024 43V30.04H-71.92C-71.0453 30.04 -70.3093 30.1467 -69.712 30.36C-69.104 30.5627 -68.6453 30.9147 -68.336 31.416C-68.016 31.9173 -67.856 32.6 -67.856 33.464C-67.856 33.9867 -67.904 34.456 -68 34.872C-68.096 35.288 -68.2613 35.6453 -68.496 35.944C-68.72 36.232 -69.0347 36.456 -69.44 36.616L-67.632 43H-70L-71.568 37.064H-72.656V43H-75.024ZM-72.656 35.576H-71.92C-71.4613 35.576 -71.0987 35.512 -70.832 35.384C-70.5547 35.2453 -70.3573 35.032 -70.24 34.744C-70.1227 34.4453 -70.064 34.0667 -70.064 33.608C-70.064 32.9573 -70.1867 32.472 -70.432 32.152C-70.6667 31.8213 -71.12 31.656 -71.792 31.656H-72.656V35.576ZM-64.4552 43V30.04H-59.0152V31.704H-62.0872V35.432H-59.6712V37.08H-62.0872V41.368H-58.9832V43H-64.4552ZM-52.5235 43.176C-53.4728 43.176 -54.2195 42.9893 -54.7635 42.616C-55.2968 42.2427 -55.6702 41.736 -55.8835 41.096C-56.0968 40.4453 -56.2035 39.6987 -56.2035 38.856V34.232C-56.2035 33.3467 -56.0968 32.5787 -55.8835 31.928C-55.6702 31.2773 -55.2968 30.776 -54.7635 30.424C-54.2195 30.072 -53.4728 29.896 -52.5235 29.896C-51.6275 29.896 -50.9288 30.0507 -50.4275 30.36C-49.9155 30.6587 -49.5528 31.0907 -49.3395 31.656C-49.1262 32.2213 -49.0195 32.8773 -49.0195 33.624V34.712H-51.2915V33.592C-51.2915 33.2293 -51.3128 32.8987 -51.3555 32.6C-51.3875 32.3013 -51.4888 32.0667 -51.6595 31.896C-51.8195 31.7147 -52.1022 31.624 -52.5075 31.624C-52.9128 31.624 -53.2115 31.72 -53.4035 31.912C-53.5848 32.0933 -53.7022 32.344 -53.7555 32.664C-53.8088 32.9733 -53.8355 33.3253 -53.8355 33.72V39.352C-53.8355 39.8213 -53.7982 40.2107 -53.7235 40.52C-53.6488 40.8187 -53.5155 41.048 -53.3235 41.208C-53.1208 41.3573 -52.8488 41.432 -52.5075 41.432C-52.1128 41.432 -51.8355 41.3413 -51.6755 41.16C-51.5048 40.968 -51.3982 40.7173 -51.3555 40.408C-51.3128 40.0987 -51.2915 39.752 -51.2915 39.368V38.2H-49.0195V39.24C-49.0195 40.008 -49.1208 40.6907 -49.3235 41.288C-49.5262 41.8747 -49.8835 42.3387 -50.3955 42.68C-50.8968 43.0107 -51.6062 43.176 -52.5235 43.176ZM-45.7709 43V30.04H-40.3309V31.704H-43.4029V35.432H-40.9869V37.08H-43.4029V41.368H-40.2989V43H-45.7709ZM-37.3271 43V30.04H-35.6791L-32.5271 37.432V30.04H-30.5751V43H-32.1431L-35.3111 35.256V43H-37.3271ZM-25.7124 43V31.784H-27.7764V30.04H-21.3124V31.784H-23.3444V43H-25.7124ZM-11.7467 43V31.784H-13.8107V30.04H-7.34675V31.784H-9.37875V43H-11.7467ZM-4.56775 43V30.04H-1.46375C-0.58908 30.04 0.14692 30.1467 0.744253 30.36C1.35225 30.5627 1.81092 30.9147 2.12025 31.416C2.44025 31.9173 2.60025 32.6 2.60025 33.464C2.60025 33.9867 2.55225 34.456 2.45625 34.872C2.36025 35.288 2.19492 35.6453 1.96025 35.944C1.73625 36.232 1.42159 36.456 1.01625 36.616L2.82425 43H0.456254L-1.11175 37.064H-2.19975V43H-4.56775ZM-2.19975 35.576H-1.46375C-1.00508 35.576 -0.642413 35.512 -0.375747 35.384C-0.0984135 35.2453 0.0989199 35.032 0.216253 34.744C0.333587 34.4453 0.392253 34.0667 0.392253 33.608C0.392253 32.9573 0.269587 32.472 0.0242534 32.152C-0.210413 31.8213 -0.663747 31.656 -1.33575 31.656H-2.19975V35.576ZM5.345 43L7.937 30.04H10.465L13.057 43H10.865L10.353 40.008H8.097L7.569 43H5.345ZM8.337 38.504H10.097L9.217 33.064L8.337 38.504ZM15.9604 43V30.04H17.6084L20.7604 37.432V30.04H22.7124V43H21.1444L17.9764 35.256V43H15.9604ZM29.5431 43.176C28.7645 43.176 28.1138 43.0267 27.5911 42.728C27.0685 42.4187 26.6738 41.9707 26.4071 41.384C26.1405 40.7973 25.9911 40.0773 25.9591 39.224L27.9911 38.824C28.0125 39.3253 28.0711 39.768 28.1671 40.152C28.2738 40.536 28.4285 40.8347 28.6311 41.048C28.8445 41.2507 29.1218 41.352 29.4631 41.352C29.8471 41.352 30.1191 41.24 30.2791 41.016C30.4391 40.7813 30.5191 40.488 30.5191 40.136C30.5191 39.5707 30.3911 39.1067 30.1351 38.744C29.8791 38.3813 29.5378 38.0187 29.1111 37.656L27.4791 36.216C27.0205 35.8213 26.6525 35.384 26.3751 34.904C26.1085 34.4133 25.9751 33.8107 25.9751 33.096C25.9751 32.072 26.2738 31.2827 26.8711 30.728C27.4685 30.1733 28.2845 29.896 29.3191 29.896C29.9271 29.896 30.4338 29.992 30.8391 30.184C31.2445 30.3653 31.5645 30.6213 31.7991 30.952C32.0445 31.2827 32.2258 31.6613 32.3431 32.088C32.4605 32.504 32.5351 32.9467 32.5671 33.416L30.5511 33.768C30.5298 33.3627 30.4818 33 30.4071 32.68C30.3431 32.36 30.2205 32.1093 30.0391 31.928C29.8685 31.7467 29.6125 31.656 29.2711 31.656C28.9191 31.656 28.6471 31.7733 28.4551 32.008C28.2738 32.232 28.1831 32.5147 28.1831 32.856C28.1831 33.2933 28.2738 33.656 28.4551 33.944C28.6365 34.2213 28.8978 34.5093 29.2391 34.808L30.8551 36.232C31.3885 36.68 31.8418 37.208 32.2151 37.816C32.5991 38.4133 32.7911 39.1387 32.7911 39.992C32.7911 40.6107 32.6525 41.16 32.3751 41.64C32.1085 42.12 31.7298 42.4987 31.2391 42.776C30.7591 43.0427 30.1938 43.176 29.5431 43.176ZM35.0356 43L37.6276 30.04H40.1556L42.7476 43H40.5556L40.0436 40.008H37.7876L37.2596 43H35.0356ZM38.0276 38.504H39.7876L38.9076 33.064L38.0276 38.504ZM48.9984 43.176C48.049 43.176 47.3024 42.9893 46.7584 42.616C46.225 42.2427 45.8517 41.736 45.6384 41.096C45.425 40.4453 45.3184 39.6987 45.3184 38.856V34.232C45.3184 33.3467 45.425 32.5787 45.6384 31.928C45.8517 31.2773 46.225 30.776 46.7584 30.424C47.3024 30.072 48.049 29.896 48.9984 29.896C49.8944 29.896 50.593 30.0507 51.0944 30.36C51.6064 30.6587 51.969 31.0907 52.1824 31.656C52.3957 32.2213 52.5024 32.8773 52.5024 33.624V34.712H50.2304V33.592C50.2304 33.2293 50.209 32.8987 50.1664 32.6C50.1344 32.3013 50.033 32.0667 49.8624 31.896C49.7024 31.7147 49.4197 31.624 49.0144 31.624C48.609 31.624 48.3104 31.72 48.1184 31.912C47.937 32.0933 47.8197 32.344 47.7664 32.664C47.713 32.9733 47.6864 33.3253 47.6864 33.72V39.352C47.6864 39.8213 47.7237 40.2107 47.7984 40.52C47.873 40.8187 48.0064 41.048 48.1984 41.208C48.401 41.3573 48.673 41.432 49.0144 41.432C49.409 41.432 49.6864 41.3413 49.8464 41.16C50.017 40.968 50.1237 40.7173 50.1664 40.408C50.209 40.0987 50.2304 39.752 50.2304 39.368V38.2H52.5024V39.24C52.5024 40.008 52.401 40.6907 52.1984 41.288C51.9957 41.8747 51.6384 42.3387 51.1264 42.68C50.625 43.0107 49.9157 43.176 48.9984 43.176ZM57.047 43V31.784H54.983V30.04H61.447V31.784H59.415V43H57.047ZM64.29 43V30.04H66.626V43H64.29ZM73.7523 43.176C72.8349 43.176 72.1043 43.0053 71.5603 42.664C71.0163 42.3227 70.6269 41.832 70.3923 41.192C70.1576 40.552 70.0403 39.7947 70.0403 38.92V34.072C70.0403 33.1973 70.1576 32.4507 70.3923 31.832C70.6269 31.2027 71.0163 30.7227 71.5603 30.392C72.1043 30.0613 72.8349 29.896 73.7523 29.896C74.6909 29.896 75.4269 30.0613 75.9603 30.392C76.5043 30.7227 76.8936 31.2027 77.1283 31.832C77.3736 32.4507 77.4963 33.1973 77.4963 34.072V38.936C77.4963 39.8 77.3736 40.552 77.1283 41.192C76.8936 41.8213 76.5043 42.312 75.9603 42.664C75.4269 43.0053 74.6909 43.176 73.7523 43.176ZM73.7523 41.432C74.1469 41.432 74.4349 41.3467 74.6163 41.176C74.8083 41.0053 74.9363 40.7707 75.0003 40.472C75.0643 40.1733 75.0963 39.848 75.0963 39.496V33.528C75.0963 33.1653 75.0643 32.84 75.0003 32.552C74.9363 32.264 74.8083 32.04 74.6163 31.88C74.4349 31.7093 74.1469 31.624 73.7523 31.624C73.3789 31.624 73.0963 31.7093 72.9043 31.88C72.7123 32.04 72.5843 32.264 72.5203 32.552C72.4563 32.84 72.4243 33.1653 72.4243 33.528V39.496C72.4243 39.848 72.4509 40.1733 72.5043 40.472C72.5683 40.7707 72.6963 41.0053 72.8883 41.176C73.0803 41.3467 73.3683 41.432 73.7523 41.432ZM80.8479 43V30.04H82.4959L85.6479 37.432V30.04H87.5999V43H86.0319L82.8639 35.256V43H80.8479ZM94.4306 43.176C93.652 43.176 93.0013 43.0267 92.4786 42.728C91.956 42.4187 91.5613 41.9707 91.2946 41.384C91.028 40.7973 90.8786 40.0773 90.8466 39.224L92.8786 38.824C92.9 39.3253 92.9586 39.768 93.0546 40.152C93.1613 40.536 93.316 40.8347 93.5186 41.048C93.732 41.2507 94.0093 41.352 94.3506 41.352C94.7346 41.352 95.0066 41.24 95.1666 41.016C95.3266 40.7813 95.4066 40.488 95.4066 40.136C95.4066 39.5707 95.2786 39.1067 95.0226 38.744C94.7666 38.3813 94.4253 38.0187 93.9986 37.656L92.3666 36.216C91.908 35.8213 91.54 35.384 91.2626 34.904C90.996 34.4133 90.8626 33.8107 90.8626 33.096C90.8626 32.072 91.1613 31.2827 91.7586 30.728C92.356 30.1733 93.172 29.896 94.2066 29.896C94.8146 29.896 95.3213 29.992 95.7266 30.184C96.132 30.3653 96.452 30.6213 96.6866 30.952C96.932 31.2827 97.1133 31.6613 97.2306 32.088C97.348 32.504 97.4226 32.9467 97.4546 33.416L95.4386 33.768C95.4173 33.3627 95.3693 33 95.2946 32.68C95.2306 32.36 95.108 32.1093 94.9266 31.928C94.756 31.7467 94.5 31.656 94.1586 31.656C93.8066 31.656 93.5346 31.7733 93.3426 32.008C93.1613 32.232 93.0706 32.5147 93.0706 32.856C93.0706 33.2933 93.1613 33.656 93.3426 33.944C93.524 34.2213 93.7853 34.5093 94.1266 34.808L95.7426 36.232C96.276 36.68 96.7293 37.208 97.1026 37.816C97.4866 38.4133 97.6786 39.1387 97.6786 39.992C97.6786 40.6107 97.54 41.16 97.2626 41.64C96.996 42.12 96.6173 42.4987 96.1266 42.776C95.6466 43.0427 95.0813 43.176 94.4306 43.176Z" fill="black" fill-opacity="0.3"/>
<path d="M-114.024 19V6.04H-110.92C-110.045 6.04 -109.309 6.14667 -108.712 6.36C-108.104 6.56267 -107.645 6.91467 -107.336 7.416C-107.016 7.91733 -106.856 8.6 -106.856 9.464C-106.856 9.98667 -106.904 10.456 -107 10.872C-107.096 11.288 -107.261 11.6453 -107.496 11.944C-107.72 12.232 -108.035 12.456 -108.44 12.616L-106.632 19H-109L-110.568 13.064H-111.656V19H-114.024ZM-111.656 11.576H-110.92C-110.461 11.576 -110.099 11.512 -109.832 11.384C-109.555 11.2453 -109.357 11.032 -109.24 10.744C-109.123 10.4453 -109.064 10.0667 -109.064 9.608C-109.064 8.95733 -109.187 8.472 -109.432 8.152C-109.667 7.82133 -110.12 7.656 -110.792 7.656H-111.656V11.576ZM-103.455 19V6.04H-98.0152V7.704H-101.087V11.432H-98.6712V13.08H-101.087V17.368H-97.9832V19H-103.455ZM-91.5235 19.176C-92.4728 19.176 -93.2195 18.9893 -93.7635 18.616C-94.2968 18.2427 -94.6702 17.736 -94.8835 17.096C-95.0968 16.4453 -95.2035 15.6987 -95.2035 14.856V10.232C-95.2035 9.34667 -95.0968 8.57867 -94.8835 7.928C-94.6702 7.27733 -94.2968 6.776 -93.7635 6.424C-93.2195 6.072 -92.4728 5.896 -91.5235 5.896C-90.6275 5.896 -89.9288 6.05067 -89.4275 6.36C-88.9155 6.65867 -88.5528 7.09067 -88.3395 7.656C-88.1262 8.22133 -88.0195 8.87733 -88.0195 9.624V10.712H-90.2915V9.592C-90.2915 9.22933 -90.3128 8.89867 -90.3555 8.6C-90.3875 8.30133 -90.4888 8.06667 -90.6595 7.896C-90.8195 7.71467 -91.1022 7.624 -91.5075 7.624C-91.9128 7.624 -92.2115 7.72 -92.4035 7.912C-92.5848 8.09333 -92.7022 8.344 -92.7555 8.664C-92.8088 8.97333 -92.8355 9.32533 -92.8355 9.72V15.352C-92.8355 15.8213 -92.7982 16.2107 -92.7235 16.52C-92.6488 16.8187 -92.5155 17.048 -92.3235 17.208C-92.1208 17.3573 -91.8488 17.432 -91.5075 17.432C-91.1128 17.432 -90.8355 17.3413 -90.6755 17.16C-90.5048 16.968 -90.3982 16.7173 -90.3555 16.408C-90.3128 16.0987 -90.2915 15.752 -90.2915 15.368V14.2H-88.0195V15.24C-88.0195 16.008 -88.1208 16.6907 -88.3235 17.288C-88.5262 17.8747 -88.8835 18.3387 -89.3955 18.68C-89.8968 19.0107 -90.6062 19.176 -91.5235 19.176ZM-84.7709 19V6.04H-79.3309V7.704H-82.4029V11.432H-79.9869V13.08H-82.4029V17.368H-79.2989V19H-84.7709ZM-76.3271 19V6.04H-74.6791L-71.5271 13.432V6.04H-69.5751V19H-71.1431L-74.3111 11.256V19H-76.3271ZM-64.7124 19V7.784H-66.7764V6.04H-60.3124V7.784H-62.3444V19H-64.7124ZM-50.7467 19V7.784H-52.8107V6.04H-46.3467V7.784H-48.3787V19H-50.7467ZM-43.5677 19V6.04H-40.4637C-39.5891 6.04 -38.8531 6.14667 -38.2557 6.36C-37.6477 6.56267 -37.1891 6.91467 -36.8797 7.416C-36.5597 7.91733 -36.3997 8.6 -36.3997 9.464C-36.3997 9.98667 -36.4477 10.456 -36.5437 10.872C-36.6397 11.288 -36.8051 11.6453 -37.0397 11.944C-37.2637 12.232 -37.5784 12.456 -37.9837 12.616L-36.1757 19H-38.5437L-40.1117 13.064H-41.1997V19H-43.5677ZM-41.1997 11.576H-40.4637C-40.0051 11.576 -39.6424 11.512 -39.3757 11.384C-39.0984 11.2453 -38.9011 11.032 -38.7837 10.744C-38.6664 10.4453 -38.6077 10.0667 -38.6077 9.608C-38.6077 8.95733 -38.7304 8.472 -38.9757 8.152C-39.2104 7.82133 -39.6637 7.656 -40.3357 7.656H-41.1997V11.576ZM-33.655 19L-31.063 6.04H-28.535L-25.943 19H-28.135L-28.647 16.008H-30.903L-31.431 19H-33.655ZM-30.663 14.504H-28.903L-29.783 9.064L-30.663 14.504ZM-23.0396 19V6.04H-21.3916L-18.2396 13.432V6.04H-16.2876V19H-17.8556L-21.0236 11.256V19H-23.0396ZM-9.45688 19.176C-10.2355 19.176 -10.8862 19.0267 -11.4089 18.728C-11.9315 18.4187 -12.3262 17.9707 -12.5929 17.384C-12.8595 16.7973 -13.0089 16.0773 -13.0409 15.224L-11.0089 14.824C-10.9875 15.3253 -10.9289 15.768 -10.8329 16.152C-10.7262 16.536 -10.5715 16.8347 -10.3689 17.048C-10.1555 17.2507 -9.87821 17.352 -9.53688 17.352C-9.15288 17.352 -8.88088 17.24 -8.72088 17.016C-8.56088 16.7813 -8.48088 16.488 -8.48088 16.136C-8.48088 15.5707 -8.60888 15.1067 -8.86488 14.744C-9.12088 14.3813 -9.46221 14.0187 -9.88888 13.656L-11.5209 12.216C-11.9795 11.8213 -12.3475 11.384 -12.6249 10.904C-12.8915 10.4133 -13.0249 9.81067 -13.0249 9.096C-13.0249 8.072 -12.7262 7.28267 -12.1289 6.728C-11.5315 6.17333 -10.7155 5.896 -9.68088 5.896C-9.07288 5.896 -8.56621 5.992 -8.16088 6.184C-7.75554 6.36533 -7.43554 6.62133 -7.20088 6.952C-6.95554 7.28267 -6.77421 7.66133 -6.65688 8.088C-6.53954 8.504 -6.46488 8.94667 -6.43288 9.416L-8.44888 9.768C-8.47021 9.36267 -8.51821 9 -8.59288 8.68C-8.65688 8.36 -8.77954 8.10933 -8.96088 7.928C-9.13154 7.74667 -9.38754 7.656 -9.72888 7.656C-10.0809 7.656 -10.3529 7.77333 -10.5449 8.008C-10.7262 8.232 -10.8169 8.51467 -10.8169 8.856C-10.8169 9.29333 -10.7262 9.656 -10.5449 9.944C-10.3635 10.2213 -10.1022 10.5093 -9.76088 10.808L-8.14488 12.232C-7.61154 12.68 -7.15821 13.208 -6.78488 13.816C-6.40088 14.4133 -6.20888 15.1387 -6.20888 15.992C-6.20888 16.6107 -6.34754 17.16 -6.62488 17.64C-6.89154 18.12 -7.27021 18.4987 -7.76088 18.776C-8.24088 19.0427 -8.80621 19.176 -9.45688 19.176ZM-3.96438 19L-1.37238 6.04H1.15562L3.74762 19H1.55562L1.04362 16.008H-1.21238L-1.74038 19H-3.96438ZM-0.972378 14.504H0.787622L-0.0923777 9.064L-0.972378 14.504ZM9.99838 19.176C9.04904 19.176 8.30238 18.9893 7.75838 18.616C7.22504 18.2427 6.85171 17.736 6.63838 17.096C6.42504 16.4453 6.31838 15.6987 6.31838 14.856V10.232C6.31838 9.34667 6.42504 8.57867 6.63838 7.928C6.85171 7.27733 7.22504 6.776 7.75838 6.424C8.30238 6.072 9.04904 5.896 9.99838 5.896C10.8944 5.896 11.593 6.05067 12.0944 6.36C12.6064 6.65867 12.969 7.09067 13.1824 7.656C13.3957 8.22133 13.5024 8.87733 13.5024 9.624V10.712H11.2304V9.592C11.2304 9.22933 11.209 8.89867 11.1664 8.6C11.1344 8.30133 11.033 8.06667 10.8624 7.896C10.7024 7.71467 10.4197 7.624 10.0144 7.624C9.60904 7.624 9.31038 7.72 9.11838 7.912C8.93704 8.09333 8.81971 8.344 8.76638 8.664C8.71304 8.97333 8.68638 9.32533 8.68638 9.72V15.352C8.68638 15.8213 8.72371 16.2107 8.79838 16.52C8.87304 16.8187 9.00638 17.048 9.19838 17.208C9.40104 17.3573 9.67304 17.432 10.0144 17.432C10.409 17.432 10.6864 17.3413 10.8464 17.16C11.017 16.968 11.1237 16.7173 11.1664 16.408C11.209 16.0987 11.2304 15.752 11.2304 15.368V14.2H13.5024V15.24C13.5024 16.008 13.401 16.6907 13.1984 17.288C12.9957 17.8747 12.6384 18.3387 12.1264 18.68C11.625 19.0107 10.9157 19.176 9.99838 19.176ZM18.047 19V7.784H15.983V6.04H22.447V7.784H20.415V19H18.047ZM25.29 19V6.04H27.626V19H25.29ZM34.7523 19.176C33.8349 19.176 33.1043 19.0053 32.5603 18.664C32.0163 18.3227 31.6269 17.832 31.3923 17.192C31.1576 16.552 31.0403 15.7947 31.0403 14.92V10.072C31.0403 9.19733 31.1576 8.45067 31.3923 7.832C31.6269 7.20267 32.0163 6.72267 32.5603 6.392C33.1043 6.06133 33.8349 5.896 34.7523 5.896C35.6909 5.896 36.4269 6.06133 36.9603 6.392C37.5043 6.72267 37.8936 7.20267 38.1283 7.832C38.3736 8.45067 38.4963 9.19733 38.4963 10.072V14.936C38.4963 15.8 38.3736 16.552 38.1283 17.192C37.8936 17.8213 37.5043 18.312 36.9603 18.664C36.4269 19.0053 35.6909 19.176 34.7523 19.176ZM34.7523 17.432C35.1469 17.432 35.4349 17.3467 35.6163 17.176C35.8083 17.0053 35.9363 16.7707 36.0003 16.472C36.0643 16.1733 36.0963 15.848 36.0963 15.496V9.528C36.0963 9.16533 36.0643 8.84 36.0003 8.552C35.9363 8.264 35.8083 8.04 35.6163 7.88C35.4349 7.70933 35.1469 7.624 34.7523 7.624C34.3789 7.624 34.0963 7.70933 33.9043 7.88C33.7123 8.04 33.5843 8.264 33.5203 8.552C33.4563 8.84 33.4243 9.16533 33.4243 9.528V15.496C33.4243 15.848 33.4509 16.1733 33.5043 16.472C33.5683 16.7707 33.6963 17.0053 33.8883 17.176C34.0803 17.3467 34.3683 17.432 34.7523 17.432ZM41.8479 19V6.04H43.4959L46.6479 13.432V6.04H48.5999V19H47.0319L43.8639 11.256V19H41.8479ZM55.4306 19.176C54.652 19.176 54.0013 19.0267 53.4786 18.728C52.956 18.4187 52.5613 17.9707 52.2946 17.384C52.028 16.7973 51.8786 16.0773 51.8466 15.224L53.8786 14.824C53.9 15.3253 53.9586 15.768 54.0546 16.152C54.1613 16.536 54.316 16.8347 54.5186 17.048C54.732 17.2507 55.0093 17.352 55.3506 17.352C55.7346 17.352 56.0066 17.24 56.1666 17.016C56.3266 16.7813 56.4066 16.488 56.4066 16.136C56.4066 15.5707 56.2786 15.1067 56.0226 14.744C55.7666 14.3813 55.4253 14.0187 54.9986 13.656L53.3666 12.216C52.908 11.8213 52.54 11.384 52.2626 10.904C51.996 10.4133 51.8626 9.81067 51.8626 9.096C51.8626 8.072 52.1613 7.28267 52.7586 6.728C53.356 6.17333 54.172 5.896 55.2066 5.896C55.8146 5.896 56.3213 5.992 56.7266 6.184C57.132 6.36533 57.452 6.62133 57.6866 6.952C57.932 7.28267 58.1133 7.66133 58.2306 8.088C58.348 8.504 58.4226 8.94667 58.4546 9.416L56.4386 9.768C56.4173 9.36267 56.3693 9 56.2946 8.68C56.2306 8.36 56.108 8.10933 55.9266 7.928C55.756 7.74667 55.5 7.656 55.1586 7.656C54.8066 7.656 54.5346 7.77333 54.3426 8.008C54.1613 8.232 54.0706 8.51467 54.0706 8.856C54.0706 9.29333 54.1613 9.656 54.3426 9.944C54.524 10.2213 54.7853 10.5093 55.1266 10.808L56.7426 12.232C57.276 12.68 57.7293 13.208 58.1026 13.816C58.4866 14.4133 58.6786 15.1387 58.6786 15.992C58.6786 16.6107 58.54 17.16 58.2626 17.64C57.996 18.12 57.6173 18.4987 57.1266 18.776C56.6466 19.0427 56.0813 19.176 55.4306 19.176Z" fill="black" fill-opacity="0.3"/>
<path d="M-49.024 67V54.04H-45.92C-45.0453 54.04 -44.3093 54.1467 -43.712 54.36C-43.104 54.5627 -42.6453 54.9147 -42.336 55.416C-42.016 55.9173 -41.856 56.6 -41.856 57.464C-41.856 57.9867 -41.904 58.456 -42 58.872C-42.096 59.288 -42.2613 59.6453 -42.496 59.944C-42.72 60.232 -43.0347 60.456 -43.44 60.616L-41.632 67H-44L-45.568 61.064H-46.656V67H-49.024ZM-46.656 59.576H-45.92C-45.4613 59.576 -45.0987 59.512 -44.832 59.384C-44.5547 59.2453 -44.3573 59.032 -44.24 58.744C-44.1227 58.4453 -44.064 58.0667 -44.064 57.608C-44.064 56.9573 -44.1867 56.472 -44.432 56.152C-44.6667 55.8213 -45.12 55.656 -45.792 55.656H-46.656V59.576ZM-38.4552 67V54.04H-33.0152V55.704H-36.0872V59.432H-33.6712V61.08H-36.0872V65.368H-32.9832V67H-38.4552ZM-26.5235 67.176C-27.4728 67.176 -28.2195 66.9893 -28.7635 66.616C-29.2968 66.2427 -29.6702 65.736 -29.8835 65.096C-30.0968 64.4453 -30.2035 63.6987 -30.2035 62.856V58.232C-30.2035 57.3467 -30.0968 56.5787 -29.8835 55.928C-29.6702 55.2773 -29.2968 54.776 -28.7635 54.424C-28.2195 54.072 -27.4728 53.896 -26.5235 53.896C-25.6275 53.896 -24.9288 54.0507 -24.4275 54.36C-23.9155 54.6587 -23.5528 55.0907 -23.3395 55.656C-23.1262 56.2213 -23.0195 56.8773 -23.0195 57.624V58.712H-25.2915V57.592C-25.2915 57.2293 -25.3128 56.8987 -25.3555 56.6C-25.3875 56.3013 -25.4888 56.0667 -25.6595 55.896C-25.8195 55.7147 -26.1022 55.624 -26.5075 55.624C-26.9128 55.624 -27.2115 55.72 -27.4035 55.912C-27.5848 56.0933 -27.7022 56.344 -27.7555 56.664C-27.8088 56.9733 -27.8355 57.3253 -27.8355 57.72V63.352C-27.8355 63.8213 -27.7982 64.2107 -27.7235 64.52C-27.6488 64.8187 -27.5155 65.048 -27.3235 65.208C-27.1208 65.3573 -26.8488 65.432 -26.5075 65.432C-26.1128 65.432 -25.8355 65.3413 -25.6755 65.16C-25.5048 64.968 -25.3982 64.7173 -25.3555 64.408C-25.3128 64.0987 -25.2915 63.752 -25.2915 63.368V62.2H-23.0195V63.24C-23.0195 64.008 -23.1208 64.6907 -23.3235 65.288C-23.5262 65.8747 -23.8835 66.3387 -24.3955 66.68C-24.8968 67.0107 -25.6062 67.176 -26.5235 67.176ZM-19.7709 67V54.04H-14.3309V55.704H-17.4029V59.432H-14.9869V61.08H-17.4029V65.368H-14.2989V67H-19.7709ZM-11.3271 67V54.04H-9.67912L-6.52712 61.432V54.04H-4.57512V67H-6.14312L-9.31112 59.256V67H-11.3271ZM0.287625 67V55.784H-1.77637V54.04H4.68763V55.784H2.65563V67H0.287625ZM14.2533 67V55.784H12.1893V54.04H18.6533V55.784H16.6213V67H14.2533ZM21.4323 67V54.04H24.5363C25.4109 54.04 26.1469 54.1467 26.7443 54.36C27.3523 54.5627 27.8109 54.9147 28.1203 55.416C28.4403 55.9173 28.6003 56.6 28.6003 57.464C28.6003 57.9867 28.5523 58.456 28.4563 58.872C28.3603 59.288 28.1949 59.6453 27.9603 59.944C27.7363 60.232 27.4216 60.456 27.0163 60.616L28.8243 67H26.4563L24.8883 61.064H23.8003V67H21.4323ZM23.8003 59.576H24.5363C24.9949 59.576 25.3576 59.512 25.6243 59.384C25.9016 59.2453 26.0989 59.032 26.2163 58.744C26.3336 58.4453 26.3923 58.0667 26.3923 57.608C26.3923 56.9573 26.2696 56.472 26.0243 56.152C25.7896 55.8213 25.3363 55.656 24.6643 55.656H23.8003V59.576ZM31.345 67L33.937 54.04H36.465L39.057 67H36.865L36.353 64.008H34.097L33.569 67H31.345ZM34.337 62.504H36.097L35.217 57.064L34.337 62.504ZM41.9604 67V54.04H43.6084L46.7604 61.432V54.04H48.7124V67H47.1444L43.9764 59.256V67H41.9604ZM55.5431 67.176C54.7645 67.176 54.1138 67.0267 53.5911 66.728C53.0685 66.4187 52.6738 65.9707 52.4071 65.384C52.1405 64.7973 51.9911 64.0773 51.9591 63.224L53.9911 62.824C54.0125 63.3253 54.0711 63.768 54.1671 64.152C54.2738 64.536 54.4285 64.8347 54.6311 65.048C54.8445 65.2507 55.1218 65.352 55.4631 65.352C55.8471 65.352 56.1191 65.24 56.2791 65.016C56.4391 64.7813 56.5191 64.488 56.5191 64.136C56.5191 63.5707 56.3911 63.1067 56.1351 62.744C55.8791 62.3813 55.5378 62.0187 55.1111 61.656L53.4791 60.216C53.0205 59.8213 52.6525 59.384 52.3751 58.904C52.1085 58.4133 51.9751 57.8107 51.9751 57.096C51.9751 56.072 52.2738 55.2827 52.8711 54.728C53.4685 54.1733 54.2845 53.896 55.3191 53.896C55.9271 53.896 56.4338 53.992 56.8391 54.184C57.2445 54.3653 57.5645 54.6213 57.7991 54.952C58.0445 55.2827 58.2258 55.6613 58.3431 56.088C58.4605 56.504 58.5351 56.9467 58.5671 57.416L56.5511 57.768C56.5298 57.3627 56.4818 57 56.4071 56.68C56.3431 56.36 56.2205 56.1093 56.0391 55.928C55.8685 55.7467 55.6125 55.656 55.2711 55.656C54.9191 55.656 54.6471 55.7733 54.4551 56.008C54.2738 56.232 54.1831 56.5147 54.1831 56.856C54.1831 57.2933 54.2738 57.656 54.4551 57.944C54.6365 58.2213 54.8978 58.5093 55.2391 58.808L56.8551 60.232C57.3885 60.68 57.8418 61.208 58.2151 61.816C58.5991 62.4133 58.7911 63.1387 58.7911 63.992C58.7911 64.6107 58.6525 65.16 58.3751 65.64C58.1085 66.12 57.7298 66.4987 57.2391 66.776C56.7591 67.0427 56.1938 67.176 55.5431 67.176ZM61.0356 67L63.6276 54.04H66.1556L68.7476 67H66.5556L66.0436 64.008H63.7876L63.2596 67H61.0356ZM64.0276 62.504H65.7876L64.9076 57.064L64.0276 62.504ZM74.9984 67.176C74.049 67.176 73.3024 66.9893 72.7584 66.616C72.225 66.2427 71.8517 65.736 71.6384 65.096C71.425 64.4453 71.3184 63.6987 71.3184 62.856V58.232C71.3184 57.3467 71.425 56.5787 71.6384 55.928C71.8517 55.2773 72.225 54.776 72.7584 54.424C73.3024 54.072 74.049 53.896 74.9984 53.896C75.8944 53.896 76.593 54.0507 77.0944 54.36C77.6064 54.6587 77.969 55.0907 78.1824 55.656C78.3957 56.2213 78.5024 56.8773 78.5024 57.624V58.712H76.2304V57.592C76.2304 57.2293 76.209 56.8987 76.1664 56.6C76.1344 56.3013 76.033 56.0667 75.8624 55.896C75.7024 55.7147 75.4197 55.624 75.0144 55.624C74.609 55.624 74.3104 55.72 74.1184 55.912C73.937 56.0933 73.8197 56.344 73.7664 56.664C73.713 56.9733 73.6864 57.3253 73.6864 57.72V63.352C73.6864 63.8213 73.7237 64.2107 73.7984 64.52C73.873 64.8187 74.0064 65.048 74.1984 65.208C74.401 65.3573 74.673 65.432 75.0144 65.432C75.409 65.432 75.6864 65.3413 75.8464 65.16C76.017 64.968 76.1237 64.7173 76.1664 64.408C76.209 64.0987 76.2304 63.752 76.2304 63.368V62.2H78.5024V63.24C78.5024 64.008 78.401 64.6907 78.1984 65.288C77.9957 65.8747 77.6384 66.3387 77.1264 66.68C76.625 67.0107 75.9157 67.176 74.9984 67.176ZM83.047 67V55.784H80.983V54.04H87.447V55.784H85.415V67H83.047ZM90.29 67V54.04H92.626V67H90.29ZM99.7523 67.176C98.8349 67.176 98.1043 67.0053 97.5603 66.664C97.0163 66.3227 96.6269 65.832 96.3923 65.192C96.1576 64.552 96.0403 63.7947 96.0403 62.92V58.072C96.0403 57.1973 96.1576 56.4507 96.3923 55.832C96.6269 55.2027 97.0163 54.7227 97.5603 54.392C98.1043 54.0613 98.8349 53.896 99.7523 53.896C100.691 53.896 101.427 54.0613 101.96 54.392C102.504 54.7227 102.894 55.2027 103.128 55.832C103.374 56.4507 103.496 57.1973 103.496 58.072V62.936C103.496 63.8 103.374 64.552 103.128 65.192C102.894 65.8213 102.504 66.312 101.96 66.664C101.427 67.0053 100.691 67.176 99.7523 67.176ZM99.7523 65.432C100.147 65.432 100.435 65.3467 100.616 65.176C100.808 65.0053 100.936 64.7707 101 64.472C101.064 64.1733 101.096 63.848 101.096 63.496V57.528C101.096 57.1653 101.064 56.84 101 56.552C100.936 56.264 100.808 56.04 100.616 55.88C100.435 55.7093 100.147 55.624 99.7523 55.624C99.3789 55.624 99.0963 55.7093 98.9043 55.88C98.7123 56.04 98.5843 56.264 98.5203 56.552C98.4563 56.84 98.4243 57.1653 98.4243 57.528V63.496C98.4243 63.848 98.4509 64.1733 98.5043 64.472C98.5683 64.7707 98.6963 65.0053 98.8883 65.176C99.0803 65.3467 99.3683 65.432 99.7523 65.432ZM106.848 67V54.04H108.496L111.648 61.432V54.04H113.6V67H112.032L108.864 59.256V67H106.848ZM120.431 67.176C119.652 67.176 119.001 67.0267 118.479 66.728C117.956 66.4187 117.561 65.9707 117.295 65.384C117.028 64.7973 116.879 64.0773 116.847 63.224L118.879 62.824C118.9 63.3253 118.959 63.768 119.055 64.152C119.161 64.536 119.316 64.8347 119.519 65.048C119.732 65.2507 120.009 65.352 120.351 65.352C120.735 65.352 121.007 65.24 121.167 65.016C121.327 64.7813 121.407 64.488 121.407 64.136C121.407 63.5707 121.279 63.1067 121.023 62.744C120.767 62.3813 120.425 62.0187 119.999 61.656L118.367 60.216C117.908 59.8213 117.54 59.384 117.263 58.904C116.996 58.4133 116.863 57.8107 116.863 57.096C116.863 56.072 117.161 55.2827 117.759 54.728C118.356 54.1733 119.172 53.896 120.207 53.896C120.815 53.896 121.321 53.992 121.727 54.184C122.132 54.3653 122.452 54.6213 122.687 54.952C122.932 55.2827 123.113 55.6613 123.231 56.088C123.348 56.504 123.423 56.9467 123.455 57.416L121.439 57.768C121.417 57.3627 121.369 57 121.295 56.68C121.231 56.36 121.108 56.1093 120.927 55.928C120.756 55.7467 120.5 55.656 120.159 55.656C119.807 55.656 119.535 55.7733 119.343 56.008C119.161 56.232 119.071 56.5147 119.071 56.856C119.071 57.2933 119.161 57.656 119.343 57.944C119.524 58.2213 119.785 58.5093 120.127 58.808L121.743 60.232C122.276 60.68 122.729 61.208 123.103 61.816C123.487 62.4133 123.679 63.1387 123.679 63.992C123.679 64.6107 123.54 65.16 123.263 65.64C122.996 66.12 122.617 66.4987 122.127 66.776C121.647 67.0427 121.081 67.176 120.431 67.176Z" fill="black" fill-opacity="0.3"/>
<path d="M294.976 43V30.04H298.08C298.955 30.04 299.691 30.1467 300.288 30.36C300.896 30.5627 301.355 30.9147 301.664 31.416C301.984 31.9173 302.144 32.6 302.144 33.464C302.144 33.9867 302.096 34.456 302 34.872C301.904 35.288 301.739 35.6453 301.504 35.944C301.28 36.232 300.965 36.456 300.56 36.616L302.368 43H300L298.432 37.064H297.344V43H294.976ZM297.344 35.576H298.08C298.539 35.576 298.901 35.512 299.168 35.384C299.445 35.2453 299.643 35.032 299.76 34.744C299.877 34.4453 299.936 34.0667 299.936 33.608C299.936 32.9573 299.813 32.472 299.568 32.152C299.333 31.8213 298.88 31.656 298.208 31.656H297.344V35.576ZM305.545 43V30.04H310.985V31.704H307.913V35.432H310.329V37.08H307.913V41.368H311.017V43H305.545ZM317.477 43.176C316.527 43.176 315.781 42.9893 315.237 42.616C314.703 42.2427 314.33 41.736 314.117 41.096C313.903 40.4453 313.797 39.6987 313.797 38.856V34.232C313.797 33.3467 313.903 32.5787 314.117 31.928C314.33 31.2773 314.703 30.776 315.237 30.424C315.781 30.072 316.527 29.896 317.477 29.896C318.373 29.896 319.071 30.0507 319.573 30.36C320.085 30.6587 320.447 31.0907 320.661 31.656C320.874 32.2213 320.981 32.8773 320.981 33.624V34.712H318.709V33.592C318.709 33.2293 318.687 32.8987 318.645 32.6C318.613 32.3013 318.511 32.0667 318.341 31.896C318.181 31.7147 317.898 31.624 317.493 31.624C317.087 31.624 316.789 31.72 316.597 31.912C316.415 32.0933 316.298 32.344 316.245 32.664C316.191 32.9733 316.165 33.3253 316.165 33.72V39.352C316.165 39.8213 316.202 40.2107 316.277 40.52C316.351 40.8187 316.485 41.048 316.677 41.208C316.879 41.3573 317.151 41.432 317.493 41.432C317.887 41.432 318.165 41.3413 318.325 41.16C318.495 40.968 318.602 40.7173 318.645 40.408C318.687 40.0987 318.709 39.752 318.709 39.368V38.2H320.981V39.24C320.981 40.008 320.879 40.6907 320.677 41.288C320.474 41.8747 320.117 42.3387 319.605 42.68C319.103 43.0107 318.394 43.176 317.477 43.176ZM324.229 43V30.04H329.669V31.704H326.597V35.432H329.013V37.08H326.597V41.368H329.701V43H324.229ZM332.673 43V30.04H334.321L337.473 37.432V30.04H339.425V43H337.857L334.689 35.256V43H332.673ZM344.288 43V31.784H342.224V30.04H348.688V31.784H346.656V43H344.288ZM358.253 43V31.784H356.189V30.04H362.653V31.784H360.621V43H358.253ZM365.432 43V30.04H368.536C369.411 30.04 370.147 30.1467 370.744 30.36C371.352 30.5627 371.811 30.9147 372.12 31.416C372.44 31.9173 372.6 32.6 372.6 33.464C372.6 33.9867 372.552 34.456 372.456 34.872C372.36 35.288 372.195 35.6453 371.96 35.944C371.736 36.232 371.422 36.456 371.016 36.616L372.824 43H370.456L368.888 37.064H367.8V43H365.432ZM367.8 35.576H368.536C368.995 35.576 369.358 35.512 369.624 35.384C369.902 35.2453 370.099 35.032 370.216 34.744C370.334 34.4453 370.392 34.0667 370.392 33.608C370.392 32.9573 370.27 32.472 370.024 32.152C369.79 31.8213 369.336 31.656 368.664 31.656H367.8V35.576ZM375.345 43L377.937 30.04H380.465L383.057 43H380.865L380.353 40.008H378.097L377.569 43H375.345ZM378.337 38.504H380.097L379.217 33.064L378.337 38.504ZM385.96 43V30.04H387.608L390.76 37.432V30.04H392.712V43H391.144L387.976 35.256V43H385.96ZM399.543 43.176C398.764 43.176 398.114 43.0267 397.591 42.728C397.068 42.4187 396.674 41.9707 396.407 41.384C396.14 40.7973 395.991 40.0773 395.959 39.224L397.991 38.824C398.012 39.3253 398.071 39.768 398.167 40.152C398.274 40.536 398.428 40.8347 398.631 41.048C398.844 41.2507 399.122 41.352 399.463 41.352C399.847 41.352 400.119 41.24 400.279 41.016C400.439 40.7813 400.519 40.488 400.519 40.136C400.519 39.5707 400.391 39.1067 400.135 38.744C399.879 38.3813 399.538 38.0187 399.111 37.656L397.479 36.216C397.02 35.8213 396.652 35.384 396.375 34.904C396.108 34.4133 395.975 33.8107 395.975 33.096C395.975 32.072 396.274 31.2827 396.871 30.728C397.468 30.1733 398.284 29.896 399.319 29.896C399.927 29.896 400.434 29.992 400.839 30.184C401.244 30.3653 401.564 30.6213 401.799 30.952C402.044 31.2827 402.226 31.6613 402.343 32.088C402.46 32.504 402.535 32.9467 402.567 33.416L400.551 33.768C400.53 33.3627 400.482 33 400.407 32.68C400.343 32.36 400.22 32.1093 400.039 31.928C399.868 31.7467 399.612 31.656 399.271 31.656C398.919 31.656 398.647 31.7733 398.455 32.008C398.274 32.232 398.183 32.5147 398.183 32.856C398.183 33.2933 398.274 33.656 398.455 33.944C398.636 34.2213 398.898 34.5093 399.239 34.808L400.855 36.232C401.388 36.68 401.842 37.208 402.215 37.816C402.599 38.4133 402.791 39.1387 402.791 39.992C402.791 40.6107 402.652 41.16 402.375 41.64C402.108 42.12 401.73 42.4987 401.239 42.776C400.759 43.0427 400.194 43.176 399.543 43.176ZM405.036 43L407.628 30.04H410.156L412.748 43H410.556L410.044 40.008H407.788L407.26 43H405.036ZM408.028 38.504H409.788L408.908 33.064L408.028 38.504ZM418.998 43.176C418.049 43.176 417.302 42.9893 416.758 42.616C416.225 42.2427 415.852 41.736 415.638 41.096C415.425 40.4453 415.318 39.6987 415.318 38.856V34.232C415.318 33.3467 415.425 32.5787 415.638 31.928C415.852 31.2773 416.225 30.776 416.758 30.424C417.302 30.072 418.049 29.896 418.998 29.896C419.894 29.896 420.593 30.0507 421.094 30.36C421.606 30.6587 421.969 31.0907 422.182 31.656C422.396 32.2213 422.502 32.8773 422.502 33.624V34.712H420.23V33.592C420.23 33.2293 420.209 32.8987 420.166 32.6C420.134 32.3013 420.033 32.0667 419.862 31.896C419.702 31.7147 419.42 31.624 419.014 31.624C418.609 31.624 418.31 31.72 418.118 31.912C417.937 32.0933 417.82 32.344 417.766 32.664C417.713 32.9733 417.686 33.3253 417.686 33.72V39.352C417.686 39.8213 417.724 40.2107 417.798 40.52C417.873 40.8187 418.006 41.048 418.198 41.208C418.401 41.3573 418.673 41.432 419.014 41.432C419.409 41.432 419.686 41.3413 419.846 41.16C420.017 40.968 420.124 40.7173 420.166 40.408C420.209 40.0987 420.23 39.752 420.23 39.368V38.2H422.502V39.24C422.502 40.008 422.401 40.6907 422.198 41.288C421.996 41.8747 421.638 42.3387 421.126 42.68C420.625 43.0107 419.916 43.176 418.998 43.176ZM427.047 43V31.784H424.983V30.04H431.447V31.784H429.415V43H427.047ZM434.29 43V30.04H436.626V43H434.29ZM443.752 43.176C442.835 43.176 442.104 43.0053 441.56 42.664C441.016 42.3227 440.627 41.832 440.392 41.192C440.158 40.552 440.04 39.7947 440.04 38.92V34.072C440.04 33.1973 440.158 32.4507 440.392 31.832C440.627 31.2027 441.016 30.7227 441.56 30.392C442.104 30.0613 442.835 29.896 443.752 29.896C444.691 29.896 445.427 30.0613 445.96 30.392C446.504 30.7227 446.894 31.2027 447.128 31.832C447.374 32.4507 447.496 33.1973 447.496 34.072V38.936C447.496 39.8 447.374 40.552 447.128 41.192C446.894 41.8213 446.504 42.312 445.96 42.664C445.427 43.0053 444.691 43.176 443.752 43.176ZM443.752 41.432C444.147 41.432 444.435 41.3467 444.616 41.176C444.808 41.0053 444.936 40.7707 445 40.472C445.064 40.1733 445.096 39.848 445.096 39.496V33.528C445.096 33.1653 445.064 32.84 445 32.552C444.936 32.264 444.808 32.04 444.616 31.88C444.435 31.7093 444.147 31.624 443.752 31.624C443.379 31.624 443.096 31.7093 442.904 31.88C442.712 32.04 442.584 32.264 442.52 32.552C442.456 32.84 442.424 33.1653 442.424 33.528V39.496C442.424 39.848 442.451 40.1733 442.504 40.472C442.568 40.7707 442.696 41.0053 442.888 41.176C443.08 41.3467 443.368 41.432 443.752 41.432ZM450.848 43V30.04H452.496L455.648 37.432V30.04H457.6V43H456.032L452.864 35.256V43H450.848ZM464.431 43.176C463.652 43.176 463.001 43.0267 462.479 42.728C461.956 42.4187 461.561 41.9707 461.295 41.384C461.028 40.7973 460.879 40.0773 460.847 39.224L462.879 38.824C462.9 39.3253 462.959 39.768 463.055 40.152C463.161 40.536 463.316 40.8347 463.519 41.048C463.732 41.2507 464.009 41.352 464.351 41.352C464.735 41.352 465.007 41.24 465.167 41.016C465.327 40.7813 465.407 40.488 465.407 40.136C465.407 39.5707 465.279 39.1067 465.023 38.744C464.767 38.3813 464.425 38.0187 463.999 37.656L462.367 36.216C461.908 35.8213 461.54 35.384 461.263 34.904C460.996 34.4133 460.863 33.8107 460.863 33.096C460.863 32.072 461.161 31.2827 461.759 30.728C462.356 30.1733 463.172 29.896 464.207 29.896C464.815 29.896 465.321 29.992 465.727 30.184C466.132 30.3653 466.452 30.6213 466.687 30.952C466.932 31.2827 467.113 31.6613 467.231 32.088C467.348 32.504 467.423 32.9467 467.455 33.416L465.439 33.768C465.417 33.3627 465.369 33 465.295 32.68C465.231 32.36 465.108 32.1093 464.927 31.928C464.756 31.7467 464.5 31.656 464.159 31.656C463.807 31.656 463.535 31.7733 463.343 32.008C463.161 32.232 463.071 32.5147 463.071 32.856C463.071 33.2933 463.161 33.656 463.343 33.944C463.524 34.2213 463.785 34.5093 464.127 34.808L465.743 36.232C466.276 36.68 466.729 37.208 467.103 37.816C467.487 38.4133 467.679 39.1387 467.679 39.992C467.679 40.6107 467.54 41.16 467.263 41.64C466.996 42.12 466.617 42.4987 466.127 42.776C465.647 43.0427 465.081 43.176 464.431 43.176Z" fill="black" fill-opacity="0.3"/>
<path d="M255.976 19V6.04H259.08C259.955 6.04 260.691 6.14667 261.288 6.36C261.896 6.56267 262.355 6.91467 262.664 7.416C262.984 7.91733 263.144 8.6 263.144 9.464C263.144 9.98667 263.096 10.456 263 10.872C262.904 11.288 262.739 11.6453 262.504 11.944C262.28 12.232 261.965 12.456 261.56 12.616L263.368 19H261L259.432 13.064H258.344V19H255.976ZM258.344 11.576H259.08C259.539 11.576 259.901 11.512 260.168 11.384C260.445 11.2453 260.643 11.032 260.76 10.744C260.877 10.4453 260.936 10.0667 260.936 9.608C260.936 8.95733 260.813 8.472 260.568 8.152C260.333 7.82133 259.88 7.656 259.208 7.656H258.344V11.576ZM266.545 19V6.04H271.985V7.704H268.913V11.432H271.329V13.08H268.913V17.368H272.017V19H266.545ZM278.477 19.176C277.527 19.176 276.781 18.9893 276.237 18.616C275.703 18.2427 275.33 17.736 275.117 17.096C274.903 16.4453 274.797 15.6987 274.797 14.856V10.232C274.797 9.34667 274.903 8.57867 275.117 7.928C275.33 7.27733 275.703 6.776 276.237 6.424C276.781 6.072 277.527 5.896 278.477 5.896C279.373 5.896 280.071 6.05067 280.573 6.36C281.085 6.65867 281.447 7.09067 281.661 7.656C281.874 8.22133 281.981 8.87733 281.981 9.624V10.712H279.709V9.592C279.709 9.22933 279.687 8.89867 279.645 8.6C279.613 8.30133 279.511 8.06667 279.341 7.896C279.181 7.71467 278.898 7.624 278.493 7.624C278.087 7.624 277.789 7.72 277.597 7.912C277.415 8.09333 277.298 8.344 277.245 8.664C277.191 8.97333 277.165 9.32533 277.165 9.72V15.352C277.165 15.8213 277.202 16.2107 277.277 16.52C277.351 16.8187 277.485 17.048 277.677 17.208C277.879 17.3573 278.151 17.432 278.493 17.432C278.887 17.432 279.165 17.3413 279.325 17.16C279.495 16.968 279.602 16.7173 279.645 16.408C279.687 16.0987 279.709 15.752 279.709 15.368V14.2H281.981V15.24C281.981 16.008 281.879 16.6907 281.677 17.288C281.474 17.8747 281.117 18.3387 280.605 18.68C280.103 19.0107 279.394 19.176 278.477 19.176ZM285.229 19V6.04H290.669V7.704H287.597V11.432H290.013V13.08H287.597V17.368H290.701V19H285.229ZM293.673 19V6.04H295.321L298.473 13.432V6.04H300.425V19H298.857L295.689 11.256V19H293.673ZM305.288 19V7.784H303.224V6.04H309.688V7.784H307.656V19H305.288ZM319.253 19V7.784H317.189V6.04H323.653V7.784H321.621V19H319.253ZM326.432 19V6.04H329.536C330.411 6.04 331.147 6.14667 331.744 6.36C332.352 6.56267 332.811 6.91467 333.12 7.416C333.44 7.91733 333.6 8.6 333.6 9.464C333.6 9.98667 333.552 10.456 333.456 10.872C333.36 11.288 333.195 11.6453 332.96 11.944C332.736 12.232 332.422 12.456 332.016 12.616L333.824 19H331.456L329.888 13.064H328.8V19H326.432ZM328.8 11.576H329.536C329.995 11.576 330.358 11.512 330.624 11.384C330.902 11.2453 331.099 11.032 331.216 10.744C331.334 10.4453 331.392 10.0667 331.392 9.608C331.392 8.95733 331.27 8.472 331.024 8.152C330.79 7.82133 330.336 7.656 329.664 7.656H328.8V11.576ZM336.345 19L338.937 6.04H341.465L344.057 19H341.865L341.353 16.008H339.097L338.569 19H336.345ZM339.337 14.504H341.097L340.217 9.064L339.337 14.504ZM346.96 19V6.04H348.608L351.76 13.432V6.04H353.712V19H352.144L348.976 11.256V19H346.96ZM360.543 19.176C359.764 19.176 359.114 19.0267 358.591 18.728C358.068 18.4187 357.674 17.9707 357.407 17.384C357.14 16.7973 356.991 16.0773 356.959 15.224L358.991 14.824C359.012 15.3253 359.071 15.768 359.167 16.152C359.274 16.536 359.428 16.8347 359.631 17.048C359.844 17.2507 360.122 17.352 360.463 17.352C360.847 17.352 361.119 17.24 361.279 17.016C361.439 16.7813 361.519 16.488 361.519 16.136C361.519 15.5707 361.391 15.1067 361.135 14.744C360.879 14.3813 360.538 14.0187 360.111 13.656L358.479 12.216C358.02 11.8213 357.652 11.384 357.375 10.904C357.108 10.4133 356.975 9.81067 356.975 9.096C356.975 8.072 357.274 7.28267 357.871 6.728C358.468 6.17333 359.284 5.896 360.319 5.896C360.927 5.896 361.434 5.992 361.839 6.184C362.244 6.36533 362.564 6.62133 362.799 6.952C363.044 7.28267 363.226 7.66133 363.343 8.088C363.46 8.504 363.535 8.94667 363.567 9.416L361.551 9.768C361.53 9.36267 361.482 9 361.407 8.68C361.343 8.36 361.22 8.10933 361.039 7.928C360.868 7.74667 360.612 7.656 360.271 7.656C359.919 7.656 359.647 7.77333 359.455 8.008C359.274 8.232 359.183 8.51467 359.183 8.856C359.183 9.29333 359.274 9.656 359.455 9.944C359.636 10.2213 359.898 10.5093 360.239 10.808L361.855 12.232C362.388 12.68 362.842 13.208 363.215 13.816C363.599 14.4133 363.791 15.1387 363.791 15.992C363.791 16.6107 363.652 17.16 363.375 17.64C363.108 18.12 362.73 18.4987 362.239 18.776C361.759 19.0427 361.194 19.176 360.543 19.176ZM366.036 19L368.628 6.04H371.156L373.748 19H371.556L371.044 16.008H368.788L368.26 19H366.036ZM369.028 14.504H370.788L369.908 9.064L369.028 14.504ZM379.998 19.176C379.049 19.176 378.302 18.9893 377.758 18.616C377.225 18.2427 376.852 17.736 376.638 17.096C376.425 16.4453 376.318 15.6987 376.318 14.856V10.232C376.318 9.34667 376.425 8.57867 376.638 7.928C376.852 7.27733 377.225 6.776 377.758 6.424C378.302 6.072 379.049 5.896 379.998 5.896C380.894 5.896 381.593 6.05067 382.094 6.36C382.606 6.65867 382.969 7.09067 383.182 7.656C383.396 8.22133 383.502 8.87733 383.502 9.624V10.712H381.23V9.592C381.23 9.22933 381.209 8.89867 381.166 8.6C381.134 8.30133 381.033 8.06667 380.862 7.896C380.702 7.71467 380.42 7.624 380.014 7.624C379.609 7.624 379.31 7.72 379.118 7.912C378.937 8.09333 378.82 8.344 378.766 8.664C378.713 8.97333 378.686 9.32533 378.686 9.72V15.352C378.686 15.8213 378.724 16.2107 378.798 16.52C378.873 16.8187 379.006 17.048 379.198 17.208C379.401 17.3573 379.673 17.432 380.014 17.432C380.409 17.432 380.686 17.3413 380.846 17.16C381.017 16.968 381.124 16.7173 381.166 16.408C381.209 16.0987 381.23 15.752 381.23 15.368V14.2H383.502V15.24C383.502 16.008 383.401 16.6907 383.198 17.288C382.996 17.8747 382.638 18.3387 382.126 18.68C381.625 19.0107 380.916 19.176 379.998 19.176ZM388.047 19V7.784H385.983V6.04H392.447V7.784H390.415V19H388.047ZM395.29 19V6.04H397.626V19H395.29ZM404.752 19.176C403.835 19.176 403.104 19.0053 402.56 18.664C402.016 18.3227 401.627 17.832 401.392 17.192C401.158 16.552 401.04 15.7947 401.04 14.92V10.072C401.04 9.19733 401.158 8.45067 401.392 7.832C401.627 7.20267 402.016 6.72267 402.56 6.392C403.104 6.06133 403.835 5.896 404.752 5.896C405.691 5.896 406.427 6.06133 406.96 6.392C407.504 6.72267 407.894 7.20267 408.128 7.832C408.374 8.45067 408.496 9.19733 408.496 10.072V14.936C408.496 15.8 408.374 16.552 408.128 17.192C407.894 17.8213 407.504 18.312 406.96 18.664C406.427 19.0053 405.691 19.176 404.752 19.176ZM404.752 17.432C405.147 17.432 405.435 17.3467 405.616 17.176C405.808 17.0053 405.936 16.7707 406 16.472C406.064 16.1733 406.096 15.848 406.096 15.496V9.528C406.096 9.16533 406.064 8.84 406 8.552C405.936 8.264 405.808 8.04 405.616 7.88C405.435 7.70933 405.147 7.624 404.752 7.624C404.379 7.624 404.096 7.70933 403.904 7.88C403.712 8.04 403.584 8.264 403.52 8.552C403.456 8.84 403.424 9.16533 403.424 9.528V15.496C403.424 15.848 403.451 16.1733 403.504 16.472C403.568 16.7707 403.696 17.0053 403.888 17.176C404.08 17.3467 404.368 17.432 404.752 17.432ZM411.848 19V6.04H413.496L416.648 13.432V6.04H418.6V19H417.032L413.864 11.256V19H411.848ZM425.431 19.176C424.652 19.176 424.001 19.0267 423.479 18.728C422.956 18.4187 422.561 17.9707 422.295 17.384C422.028 16.7973 421.879 16.0773 421.847 15.224L423.879 14.824C423.9 15.3253 423.959 15.768 424.055 16.152C424.161 16.536 424.316 16.8347 424.519 17.048C424.732 17.2507 425.009 17.352 425.351 17.352C425.735 17.352 426.007 17.24 426.167 17.016C426.327 16.7813 426.407 16.488 426.407 16.136C426.407 15.5707 426.279 15.1067 426.023 14.744C425.767 14.3813 425.425 14.0187 424.999 13.656L423.367 12.216C422.908 11.8213 422.54 11.384 422.263 10.904C421.996 10.4133 421.863 9.81067 421.863 9.096C421.863 8.072 422.161 7.28267 422.759 6.728C423.356 6.17333 424.172 5.896 425.207 5.896C425.815 5.896 426.321 5.992 426.727 6.184C427.132 6.36533 427.452 6.62133 427.687 6.952C427.932 7.28267 428.113 7.66133 428.231 8.088C428.348 8.504 428.423 8.94667 428.455 9.416L426.439 9.768C426.417 9.36267 426.369 9 426.295 8.68C426.231 8.36 426.108 8.10933 425.927 7.928C425.756 7.74667 425.5 7.656 425.159 7.656C424.807 7.656 424.535 7.77333 424.343 8.008C424.161 8.232 424.071 8.51467 424.071 8.856C424.071 9.29333 424.161 9.656 424.343 9.944C424.524 10.2213 424.785 10.5093 425.127 10.808L426.743 12.232C427.276 12.68 427.729 13.208 428.103 13.816C428.487 14.4133 428.679 15.1387 428.679 15.992C428.679 16.6107 428.54 17.16 428.263 17.64C427.996 18.12 427.617 18.4987 427.127 18.776C426.647 19.0427 426.081 19.176 425.431 19.176Z" fill="black" fill-opacity="0.3"/>
<path d="M320.976 67V54.04H324.08C324.955 54.04 325.691 54.1467 326.288 54.36C326.896 54.5627 327.355 54.9147 327.664 55.416C327.984 55.9173 328.144 56.6 328.144 57.464C328.144 57.9867 328.096 58.456 328 58.872C327.904 59.288 327.739 59.6453 327.504 59.944C327.28 60.232 326.965 60.456 326.56 60.616L328.368 67H326L324.432 61.064H323.344V67H320.976ZM323.344 59.576H324.08C324.539 59.576 324.901 59.512 325.168 59.384C325.445 59.2453 325.643 59.032 325.76 58.744C325.877 58.4453 325.936 58.0667 325.936 57.608C325.936 56.9573 325.813 56.472 325.568 56.152C325.333 55.8213 324.88 55.656 324.208 55.656H323.344V59.576ZM331.545 67V54.04H336.985V55.704H333.913V59.432H336.329V61.08H333.913V65.368H337.017V67H331.545ZM343.477 67.176C342.527 67.176 341.781 66.9893 341.237 66.616C340.703 66.2427 340.33 65.736 340.117 65.096C339.903 64.4453 339.797 63.6987 339.797 62.856V58.232C339.797 57.3467 339.903 56.5787 340.117 55.928C340.33 55.2773 340.703 54.776 341.237 54.424C341.781 54.072 342.527 53.896 343.477 53.896C344.373 53.896 345.071 54.0507 345.573 54.36C346.085 54.6587 346.447 55.0907 346.661 55.656C346.874 56.2213 346.981 56.8773 346.981 57.624V58.712H344.709V57.592C344.709 57.2293 344.687 56.8987 344.645 56.6C344.613 56.3013 344.511 56.0667 344.341 55.896C344.181 55.7147 343.898 55.624 343.493 55.624C343.087 55.624 342.789 55.72 342.597 55.912C342.415 56.0933 342.298 56.344 342.245 56.664C342.191 56.9733 342.165 57.3253 342.165 57.72V63.352C342.165 63.8213 342.202 64.2107 342.277 64.52C342.351 64.8187 342.485 65.048 342.677 65.208C342.879 65.3573 343.151 65.432 343.493 65.432C343.887 65.432 344.165 65.3413 344.325 65.16C344.495 64.968 344.602 64.7173 344.645 64.408C344.687 64.0987 344.709 63.752 344.709 63.368V62.2H346.981V63.24C346.981 64.008 346.879 64.6907 346.677 65.288C346.474 65.8747 346.117 66.3387 345.605 66.68C345.103 67.0107 344.394 67.176 343.477 67.176ZM350.229 67V54.04H355.669V55.704H352.597V59.432H355.013V61.08H352.597V65.368H355.701V67H350.229ZM358.673 67V54.04H360.321L363.473 61.432V54.04H365.425V67H363.857L360.689 59.256V67H358.673ZM370.288 67V55.784H368.224V54.04H374.688V55.784H372.656V67H370.288ZM384.253 67V55.784H382.189V54.04H388.653V55.784H386.621V67H384.253ZM391.432 67V54.04H394.536C395.411 54.04 396.147 54.1467 396.744 54.36C397.352 54.5627 397.811 54.9147 398.12 55.416C398.44 55.9173 398.6 56.6 398.6 57.464C398.6 57.9867 398.552 58.456 398.456 58.872C398.36 59.288 398.195 59.6453 397.96 59.944C397.736 60.232 397.422 60.456 397.016 60.616L398.824 67H396.456L394.888 61.064H393.8V67H391.432ZM393.8 59.576H394.536C394.995 59.576 395.358 59.512 395.624 59.384C395.902 59.2453 396.099 59.032 396.216 58.744C396.334 58.4453 396.392 58.0667 396.392 57.608C396.392 56.9573 396.27 56.472 396.024 56.152C395.79 55.8213 395.336 55.656 394.664 55.656H393.8V59.576ZM401.345 67L403.937 54.04H406.465L409.057 67H406.865L406.353 64.008H404.097L403.569 67H401.345ZM404.337 62.504H406.097L405.217 57.064L404.337 62.504ZM411.96 67V54.04H413.608L416.76 61.432V54.04H418.712V67H417.144L413.976 59.256V67H411.96ZM425.543 67.176C424.764 67.176 424.114 67.0267 423.591 66.728C423.068 66.4187 422.674 65.9707 422.407 65.384C422.14 64.7973 421.991 64.0773 421.959 63.224L423.991 62.824C424.012 63.3253 424.071 63.768 424.167 64.152C424.274 64.536 424.428 64.8347 424.631 65.048C424.844 65.2507 425.122 65.352 425.463 65.352C425.847 65.352 426.119 65.24 426.279 65.016C426.439 64.7813 426.519 64.488 426.519 64.136C426.519 63.5707 426.391 63.1067 426.135 62.744C425.879 62.3813 425.538 62.0187 425.111 61.656L423.479 60.216C423.02 59.8213 422.652 59.384 422.375 58.904C422.108 58.4133 421.975 57.8107 421.975 57.096C421.975 56.072 422.274 55.2827 422.871 54.728C423.468 54.1733 424.284 53.896 425.319 53.896C425.927 53.896 426.434 53.992 426.839 54.184C427.244 54.3653 427.564 54.6213 427.799 54.952C428.044 55.2827 428.226 55.6613 428.343 56.088C428.46 56.504 428.535 56.9467 428.567 57.416L426.551 57.768C426.53 57.3627 426.482 57 426.407 56.68C426.343 56.36 426.22 56.1093 426.039 55.928C425.868 55.7467 425.612 55.656 425.271 55.656C424.919 55.656 424.647 55.7733 424.455 56.008C424.274 56.232 424.183 56.5147 424.183 56.856C424.183 57.2933 424.274 57.656 424.455 57.944C424.636 58.2213 424.898 58.5093 425.239 58.808L426.855 60.232C427.388 60.68 427.842 61.208 428.215 61.816C428.599 62.4133 428.791 63.1387 428.791 63.992C428.791 64.6107 428.652 65.16 428.375 65.64C428.108 66.12 427.73 66.4987 427.239 66.776C426.759 67.0427 426.194 67.176 425.543 67.176ZM431.036 67L433.628 54.04H436.156L438.748 67H436.556L436.044 64.008H433.788L433.26 67H431.036ZM434.028 62.504H435.788L434.908 57.064L434.028 62.504ZM444.998 67.176C444.049 67.176 443.302 66.9893 442.758 66.616C442.225 66.2427 441.852 65.736 441.638 65.096C441.425 64.4453 441.318 63.6987 441.318 62.856V58.232C441.318 57.3467 441.425 56.5787 441.638 55.928C441.852 55.2773 442.225 54.776 442.758 54.424C443.302 54.072 444.049 53.896 444.998 53.896C445.894 53.896 446.593 54.0507 447.094 54.36C447.606 54.6587 447.969 55.0907 448.182 55.656C448.396 56.2213 448.502 56.8773 448.502 57.624V58.712H446.23V57.592C446.23 57.2293 446.209 56.8987 446.166 56.6C446.134 56.3013 446.033 56.0667 445.862 55.896C445.702 55.7147 445.42 55.624 445.014 55.624C444.609 55.624 444.31 55.72 444.118 55.912C443.937 56.0933 443.82 56.344 443.766 56.664C443.713 56.9733 443.686 57.3253 443.686 57.72V63.352C443.686 63.8213 443.724 64.2107 443.798 64.52C443.873 64.8187 444.006 65.048 444.198 65.208C444.401 65.3573 444.673 65.432 445.014 65.432C445.409 65.432 445.686 65.3413 445.846 65.16C446.017 64.968 446.124 64.7173 446.166 64.408C446.209 64.0987 446.23 63.752 446.23 63.368V62.2H448.502V63.24C448.502 64.008 448.401 64.6907 448.198 65.288C447.996 65.8747 447.638 66.3387 447.126 66.68C446.625 67.0107 445.916 67.176 444.998 67.176ZM453.047 67V55.784H450.983V54.04H457.447V55.784H455.415V67H453.047ZM460.29 67V54.04H462.626V67H460.29ZM469.752 67.176C468.835 67.176 468.104 67.0053 467.56 66.664C467.016 66.3227 466.627 65.832 466.392 65.192C466.158 64.552 466.04 63.7947 466.04 62.92V58.072C466.04 57.1973 466.158 56.4507 466.392 55.832C466.627 55.2027 467.016 54.7227 467.56 54.392C468.104 54.0613 468.835 53.896 469.752 53.896C470.691 53.896 471.427 54.0613 471.96 54.392C472.504 54.7227 472.894 55.2027 473.128 55.832C473.374 56.4507 473.496 57.1973 473.496 58.072V62.936C473.496 63.8 473.374 64.552 473.128 65.192C472.894 65.8213 472.504 66.312 471.96 66.664C471.427 67.0053 470.691 67.176 469.752 67.176ZM469.752 65.432C470.147 65.432 470.435 65.3467 470.616 65.176C470.808 65.0053 470.936 64.7707 471 64.472C471.064 64.1733 471.096 63.848 471.096 63.496V57.528C471.096 57.1653 471.064 56.84 471 56.552C470.936 56.264 470.808 56.04 470.616 55.88C470.435 55.7093 470.147 55.624 469.752 55.624C469.379 55.624 469.096 55.7093 468.904 55.88C468.712 56.04 468.584 56.264 468.52 56.552C468.456 56.84 468.424 57.1653 468.424 57.528V63.496C468.424 63.848 468.451 64.1733 468.504 64.472C468.568 64.7707 468.696 65.0053 468.888 65.176C469.08 65.3467 469.368 65.432 469.752 65.432ZM476.848 67V54.04H478.496L481.648 61.432V54.04H483.6V67H482.032L478.864 59.256V67H476.848ZM490.431 67.176C489.652 67.176 489.001 67.0267 488.479 66.728C487.956 66.4187 487.561 65.9707 487.295 65.384C487.028 64.7973 486.879 64.0773 486.847 63.224L488.879 62.824C488.9 63.3253 488.959 63.768 489.055 64.152C489.161 64.536 489.316 64.8347 489.519 65.048C489.732 65.2507 490.009 65.352 490.351 65.352C490.735 65.352 491.007 65.24 491.167 65.016C491.327 64.7813 491.407 64.488 491.407 64.136C491.407 63.5707 491.279 63.1067 491.023 62.744C490.767 62.3813 490.425 62.0187 489.999 61.656L488.367 60.216C487.908 59.8213 487.54 59.384 487.263 58.904C486.996 58.4133 486.863 57.8107 486.863 57.096C486.863 56.072 487.161 55.2827 487.759 54.728C488.356 54.1733 489.172 53.896 490.207 53.896C490.815 53.896 491.321 53.992 491.727 54.184C492.132 54.3653 492.452 54.6213 492.687 54.952C492.932 55.2827 493.113 55.6613 493.231 56.088C493.348 56.504 493.423 56.9467 493.455 57.416L491.439 57.768C491.417 57.3627 491.369 57 491.295 56.68C491.231 56.36 491.108 56.1093 490.927 55.928C490.756 55.7467 490.5 55.656 490.159 55.656C489.807 55.656 489.535 55.7733 489.343 56.008C489.161 56.232 489.071 56.5147 489.071 56.856C489.071 57.2933 489.161 57.656 489.343 57.944C489.524 58.2213 489.785 58.5093 490.127 58.808L491.743 60.232C492.276 60.68 492.729 61.208 493.103 61.816C493.487 62.4133 493.679 63.1387 493.679 63.992C493.679 64.6107 493.54 65.16 493.263 65.64C492.996 66.12 492.617 66.4987 492.127 66.776C491.647 67.0427 491.081 67.176 490.431 67.176Z" fill="black" fill-opacity="0.3"/>
</mask>
<g mask="url(#mask0_645_15)">
<rect width="393" height="70" fill="black"/>
</g>
</svg>
